<svg width="24" height="24" viewBox="0 0 24 24" fill="none" xmlns="http://www.w3.org/2000/svg">
<g clip-path="url(#clip0_665:3433)">
<path d="M23.1482 3.31073C22.6325 3.26372 22.1765 3.64364 22.1294 4.15927L22.0052 5.52187C19.8978 2.21222 16.2395 0 12.0006 0C7.44055 0 3.42191 2.60259 1.427 6.50878C1.1915 6.96989 1.37441 7.53459 1.83552 7.77009C2.29672 8.00559 2.86133 7.82273 3.09683 7.36158C4.78513 4.05577 8.17545 1.875 12.0006 1.875C15.487 1.875 18.6334 3.69052 20.4359 6.53475L19.0992 5.58005C18.6778 5.27916 18.0923 5.37675 17.7914 5.79806C17.4905 6.21942 17.5881 6.80489 18.0094 7.10583L22.0629 10.0009C22.657 10.4244 23.4764 10.0367 23.5414 9.32311L23.9966 4.32952C24.0437 3.81384 23.6638 3.35775 23.1482 3.31073Z" fill="#D4AA00"/>
<path d="M22.165 16.2301C21.7039 15.9946 21.1392 16.1775 20.9037 16.6386C19.2154 19.9444 15.8251 22.1252 11.9999 22.1252C8.51353 22.1252 5.36718 20.3097 3.56465 17.4654L4.90139 18.4201C5.32275 18.721 5.90821 18.6234 6.20915 18.2021C6.51004 17.7808 6.41245 17.1953 5.99114 16.8944L1.93762 13.9993C1.35079 13.5801 0.524761 13.9561 0.459136 14.6771L0.00393317 19.6707C-0.0430825 20.1863 0.336839 20.6424 0.852418 20.6894C1.3687 20.7363 1.82418 20.356 1.87115 19.8409L1.99537 18.4783C4.10278 21.788 7.76109 24.0002 11.9999 24.0002C16.56 24.0002 20.5786 21.3976 22.5735 17.4914C22.809 17.0303 22.6261 16.4656 22.165 16.2301Z" fill="#D4AA00"/>
</g>
<defs>
<clipPath id="clip0_665:3433">
<rect width="24" height="24" fill="white"/>
</clipPath>
</defs>
</svg>
