<svg width="163" height="163" viewBox="0 0 163 163" fill="none" xmlns="http://www.w3.org/2000/svg">
<path opacity="0.5" d="M81.5 0C36.4893 0 0 36.4893 0 81.5C0 126.511 36.4893 163 81.5 163C126.511 163 163 126.511 163 81.5063C163 36.502 126.511 0 81.5 0ZM81.5 122.048C73.4802 122.048 65.6405 119.669 58.9723 115.214C52.3042 110.758 47.1071 104.425 44.0383 97.0154C40.9696 89.6059 40.167 81.4529 41.732 73.5872C43.2971 65.7216 47.1595 58.4967 52.8308 52.8263C58.5021 47.1559 65.7276 43.2946 73.5934 41.7308C81.4593 40.1669 89.6123 40.9708 97.0213 44.0408C104.43 47.1107 110.762 52.3087 115.217 58.9776C119.672 65.6464 122.049 73.4865 122.048 81.5063C122.046 92.2591 117.773 102.571 110.169 110.174C102.565 117.776 92.2528 122.048 81.5 122.048Z" fill="#F0F0F1"/>
</svg>
