<svg width="44" height="44" viewBox="0 0 44 44" fill="none" xmlns="http://www.w3.org/2000/svg">
    <path d="M44 22C44 34.1504 34.1504 44 22 44C9.84958 44 0 34.1504 0 22C0 9.84958 9.84958 0 22 0C34.1504 0 44 9.84958 44 22Z"
          fill="#0000FF"/>
    <path d="M27.4314 11H17.5686C16.1521 11 15 12.1969 15 13.668V17.1863H16.8631V13.668C16.8631 13.2639 17.1795 12.9353 17.5686 12.9353H27.4314C27.8205 12.9353 28.1369 13.2641 28.1369 13.668V30.332C28.1369 30.7361 27.8203 31.0647 27.4314 31.0647H17.5686C17.1795 31.0647 16.8631 30.7359 16.8631 30.332V26.8137H15V30.332C15 31.8031 16.1521 33 17.5686 33H27.4314C28.8477 33 30 31.8031 30 30.332V13.668C30 12.1969 28.8477 11 27.4314 11Z"
          fill="white"/>
    <path d="M16.6621 24.6886L17.9801 26L22 22L17.9801 18L16.6621 19.3114L18.4322 21.0727H8V22.9273H18.4322L16.6621 24.6886Z"
          fill="white"/>
</svg>
