<svg width="18" height="18" viewBox="0 0 18 18" fill="none" xmlns="http://www.w3.org/2000/svg">
<path d="M12.491 -0.000488281H4.63617C2.07974 -0.000488281 0 2.07925 0 4.63568V12.4906C0 15.0469 2.07974 17.1267 4.63617 17.1267H12.4911C15.0474 17.1267 17.1272 15.0469 17.1272 12.4906V4.63568C17.1272 2.07925 15.0474 -0.000488281 12.491 -0.000488281V-0.000488281ZM8.56358 13.2462C5.98128 13.2462 3.8805 11.1454 3.8805 8.56309C3.8805 5.98079 5.98128 3.88001 8.56358 3.88001C11.1459 3.88001 13.2467 5.98079 13.2467 8.56309C13.2467 11.1454 11.1459 13.2462 8.56358 13.2462ZM13.3586 4.98444C12.5955 4.98444 11.9748 4.36375 11.9748 3.60064C11.9748 2.83753 12.5955 2.21672 13.3586 2.21672C14.1218 2.21672 14.7426 2.83753 14.7426 3.60064C14.7426 4.36375 14.1218 4.98444 13.3586 4.98444Z" fill="#8C8C8C"/>
<path d="M5.38477 8.5628C5.38477 6.8103 6.81139 5.38379 8.56378 5.38379C10.3163 5.38379 11.7428 6.81029 11.7428 8.5628C11.7428 10.3152 10.3163 11.7418 8.56378 11.7418C6.8114 11.7418 5.38477 10.3152 5.38477 8.5628Z" fill="#8C8C8C" stroke="#505050"/>
<path d="M13.3582 2.7207C12.8728 2.7207 12.4785 3.11495 12.4785 3.60043C12.4785 4.08591 12.8728 4.48016 13.3582 4.48016C13.8436 4.48016 14.2381 4.08626 14.2381 3.60043C14.2381 3.1146 13.8436 2.7207 13.3582 2.7207Z" fill="#8C8C8C" stroke="#505050"/>
</svg>
