<svg width="15" height="25" viewBox="0 0 15 25" fill="none" xmlns="http://www.w3.org/2000/svg">
    <path d="M6.27037 17.6089C4.33382 17.4068 2.58774 16.9295 1.09281 15.7594C0.907323 15.6138 0.715814 15.4734 0.546543 15.3109C-0.107781 14.6819 -0.17371 13.9616 0.344045 13.2193C0.786976 12.5841 1.53051 12.4142 2.30335 12.7789C2.453 12.8496 2.59559 12.9379 2.73216 13.0327C5.5182 14.9485 9.34551 15.0014 12.142 13.1188C12.4191 12.9062 12.7152 12.7329 13.0585 12.6444C13.7259 12.4729 14.3483 12.7182 14.7065 13.3026C15.1156 13.97 15.1104 14.6214 14.6063 15.1396C13.8329 15.934 12.9028 16.5087 11.8694 16.9099C10.8922 17.289 9.82193 17.4799 8.76261 17.6066C8.92246 17.7807 8.99781 17.8663 9.09775 17.9669C10.5362 19.4132 11.9809 20.8536 13.4146 22.3044C13.903 22.7987 14.005 23.4117 13.7361 23.9867C13.442 24.615 12.7838 25.0285 12.1384 24.9842C11.7294 24.956 11.4105 24.7522 11.1272 24.4666C10.0417 23.3734 8.9358 22.3005 7.8723 21.1866C7.5628 20.8627 7.41393 20.924 7.14079 21.2052C6.04877 22.3303 4.93896 23.4381 3.82261 24.5396C3.32134 25.0342 2.72483 25.1233 2.1435 24.8407C1.52554 24.541 1.13232 23.9097 1.16267 23.2753C1.1836 22.8461 1.39447 22.5183 1.6888 22.2243C3.1123 20.8017 4.53187 19.3755 5.95197 17.9506C6.0459 17.8559 6.13354 17.7553 6.27037 17.6089Z"
          fill="#8C8C8C"/>
    <path d="M7.45118 12.6541C3.99643 12.6423 1.16356 9.77604 1.1837 6.31306C1.20358 2.81184 4.03829 -0.00966291 7.52706 2.48731e-05C11.0229 0.00945082 13.8288 2.87154 13.8113 6.40915C13.7935 9.86507 10.941 12.6661 7.45118 12.6541ZM10.5909 6.32143C10.5849 4.60198 9.21663 3.23313 7.50194 3.23156C5.77286 3.22972 4.39227 4.62345 4.40561 6.35861C4.41843 8.07152 5.7985 9.43069 7.5179 9.42441C9.23206 9.41838 10.5967 8.04062 10.5909 6.32143Z"
          fill="#8C8C8C"/>
</svg>
