<svg width="17" height="19" viewBox="0 0 17 19" fill="none" xmlns="http://www.w3.org/2000/svg">
<path d="M16.4153 4.57552C15.3707 4.57552 14.4068 4.22945 13.6329 3.64566C12.7452 2.97642 12.1074 1.99472 11.8822 0.863232C11.8264 0.583667 11.7964 0.295164 11.7935 -0.000488281H8.80946V8.15338L8.80589 12.6196C8.80589 13.8137 8.02832 14.8261 6.95046 15.1822C6.63765 15.2855 6.29981 15.3345 5.94803 15.3152C5.49901 15.2905 5.07823 15.155 4.71251 14.9362C3.93423 14.4708 3.40656 13.6263 3.39226 12.6604C3.36974 11.1507 4.59024 9.91979 6.09889 9.91979C6.39669 9.91979 6.68269 9.96841 6.95046 10.0567V7.82805V7.0269C6.66803 6.98507 6.3806 6.96326 6.08996 6.96326C4.43866 6.96326 2.89426 7.64966 1.7903 8.88625C0.955894 9.82076 0.455393 11.013 0.378173 12.2632C0.277001 13.9056 0.877959 15.4668 2.04341 16.6186C2.21465 16.7877 2.39447 16.9447 2.58252 17.0895C3.58173 17.8584 4.80331 18.2753 6.08996 18.2753C6.3806 18.2753 6.66803 18.2538 6.95046 18.212C8.15238 18.034 9.26134 17.4838 10.1365 16.6186C11.2119 15.5558 11.806 14.1447 11.8125 12.6429L11.7971 5.97334C12.3101 6.36909 12.871 6.69656 13.4731 6.95075C14.4093 7.34579 15.4021 7.54599 16.4239 7.54563V5.37882V4.5748C16.4246 4.57552 16.416 4.57552 16.4153 4.57552Z" fill="#8C8C8C"/>
</svg>
