<svg width="28" height="16" viewBox="0 0 28 16" fill="none" xmlns="http://www.w3.org/2000/svg">
    <path d="M24.8263 6.68926C25.2244 6.17375 25.5406 5.76012 25.774 5.44805C27.4553 3.20932 28.184 1.77921 27.9607 1.1557L27.8731 1.00968C27.8149 0.921967 27.6639 0.841422 27.4212 0.768515C27.1781 0.695661 26.8671 0.684019 26.4883 0.732114L22.2898 0.761773C22.1926 0.75208 22.0953 0.754344 21.9981 0.768515C21.9009 0.783318 21.8378 0.798173 21.8085 0.812343C21.7792 0.827199 21.7551 0.839104 21.7358 0.848797L21.6775 0.892626C21.6289 0.921651 21.5755 0.972908 21.5173 1.04613C21.4589 1.1193 21.41 1.20411 21.3714 1.30178C20.9146 2.47946 20.3948 3.57465 19.8116 4.58697C19.4519 5.19051 19.1213 5.71408 18.8204 6.15637C18.5191 6.59966 18.2664 6.92563 18.0622 7.1345C17.8582 7.34374 17.6734 7.512 17.5083 7.63811C17.3429 7.76512 17.2167 7.81832 17.1295 7.79899C17.0418 7.77965 16.9592 7.76032 16.8816 7.7403C16.7454 7.65296 16.6359 7.53396 16.5536 7.38278C16.4709 7.23227 16.4152 7.04231 16.3858 6.81343C16.3568 6.58485 16.3395 6.38757 16.335 6.22185C16.3298 6.05649 16.3324 5.82307 16.3424 5.52096C16.3521 5.21916 16.3568 5.01514 16.3568 4.90778C16.3568 4.53829 16.3643 4.13662 16.3788 3.70334C16.3933 3.27038 16.4056 2.92702 16.4152 2.6739C16.4249 2.42114 16.4296 2.15322 16.4296 1.87081C16.4296 1.58904 16.4126 1.36721 16.3784 1.20638C16.3443 1.04613 16.2931 0.890413 16.2255 0.739226C16.1573 0.58867 16.0578 0.471619 15.9264 0.389124C15.7952 0.306261 15.6325 0.240834 15.4382 0.191791C14.9228 0.0747391 14.2668 0.0122095 13.47 0.00193717C11.6622 -0.0167637 10.5008 0.0999194 9.98578 0.352671C9.7817 0.46003 9.59692 0.605738 9.43181 0.790798C9.25671 1.0052 9.23257 1.1222 9.35907 1.1409C9.94233 1.22861 10.3551 1.43816 10.5981 1.76893L10.6857 1.94398C10.7536 2.07099 10.8215 2.29477 10.8897 2.61584C10.9577 2.93697 11.0015 3.29224 11.0211 3.68169C11.0697 4.39222 11.0697 5.00028 11.0211 5.50679C10.9725 6.01324 10.9264 6.40722 10.8827 6.689C10.8389 6.97141 10.7732 7.19998 10.686 7.37503C10.5984 7.55071 10.5402 7.65776 10.5109 7.69674C10.4816 7.73541 10.4574 7.7599 10.4381 7.76965C10.3116 7.81801 10.1806 7.8425 10.0445 7.8425C9.9083 7.8425 9.74314 7.77412 9.54874 7.63774C9.35428 7.50204 9.15246 7.3144 8.94386 7.07582C8.73462 6.8376 8.4993 6.50394 8.23662 6.07545C7.97426 5.64765 7.70191 5.14115 7.42025 4.55731L7.18718 4.13367C7.04138 3.86159 6.84209 3.46471 6.5894 2.94403C6.33672 2.42336 6.11297 1.9198 5.91888 1.43269C5.84098 1.22861 5.72443 1.07289 5.569 0.965533L5.49625 0.921704C5.44765 0.882985 5.36976 0.841422 5.26288 0.797857C5.15568 0.754029 5.04433 0.722421 4.92746 0.702772L0.932988 0.731798C0.524825 0.731798 0.248001 0.82467 0.102198 1.00968L0.0439195 1.09707C0.0144645 1.14606 0 1.22408 0 1.3308C0 1.43816 0.0292972 1.56939 0.0875761 1.72479C0.670838 3.09754 1.30502 4.4213 1.99 5.69601C2.67536 6.97141 3.27056 7.99854 3.77592 8.77712C4.28129 9.55634 4.79633 10.2907 5.32137 10.9819C5.8464 11.6731 6.19371 12.1157 6.36365 12.3102C6.5336 12.5052 6.6672 12.6513 6.76445 12.7483L7.12885 13.099C7.36191 13.3325 7.70475 13.6123 8.15673 13.9386C8.60865 14.2648 9.10891 14.5859 9.65841 14.9019C10.2073 15.2185 10.8465 15.476 11.5753 15.676C12.3041 15.8758 13.0135 15.956 13.7037 15.9167H15.3802C15.7205 15.8877 15.9779 15.781 16.1528 15.5956L16.211 15.5228C16.2496 15.4647 16.2863 15.3745 16.3204 15.2529C16.3542 15.1314 16.3717 14.9972 16.3717 14.8515C16.3616 14.4331 16.3936 14.0552 16.4663 13.7199C16.5391 13.384 16.6217 13.1313 16.7142 12.9604C16.8066 12.7905 16.9108 12.6467 17.0276 12.5297C17.1442 12.4126 17.2266 12.3427 17.2755 12.3182C17.3241 12.2943 17.3632 12.2772 17.3921 12.2669C17.6251 12.1892 17.8997 12.2647 18.2158 12.4932C18.5316 12.7225 18.8281 13.0042 19.1053 13.3401C19.382 13.6761 19.7149 14.0529 20.1038 14.4717C20.4923 14.8901 20.8325 15.2016 21.1242 15.406L21.4159 15.5817C21.6102 15.6981 21.8626 15.8051 22.1739 15.9028C22.4849 15.9999 22.7572 16.0244 22.9902 15.9757L26.7223 15.917C27.0916 15.917 27.3784 15.8564 27.5825 15.7345C27.7866 15.6136 27.908 15.4789 27.9469 15.3332C27.9855 15.1871 27.9881 15.0224 27.9543 14.837C27.9203 14.6522 27.8861 14.5233 27.8524 14.4504C27.8183 14.3776 27.7866 14.3163 27.7573 14.268C27.2713 13.392 26.3432 12.3162 24.9729 11.0411L24.9436 11.0121L24.9291 10.9973L24.9146 10.9831H24.9C24.2778 10.3892 23.8844 9.9901 23.7192 9.78539C23.418 9.39662 23.3497 9.00232 23.5152 8.60323C23.6311 8.30059 24.0682 7.66292 24.8263 6.68926Z"
          fill="#8C8C8C"/>
</svg>
