<svg width="21" height="16" viewBox="0 0 21 16" fill="none" xmlns="http://www.w3.org/2000/svg">
<path d="M19.9488 12.7112C19.7144 13.6281 19.0274 14.351 18.1562 14.5979C16.5647 15.0562 10.1983 15.0562 10.1983 15.0562C10.1983 15.0562 3.83222 15.0562 2.24067 14.6152C1.38623 14.3686 0.682504 13.628 0.448134 12.7112C0.0292969 11.0364 0.0292969 7.56302 0.0292969 7.56302C0.0292969 7.56302 0.0292969 4.07218 0.448134 2.41488C0.682752 1.49804 1.36948 0.775213 2.24079 0.528303C3.84898 0.0698862 10.1986 0.0698862 10.1986 0.0698862C10.1986 0.0698862 16.5647 0.0698862 18.1562 0.510797C19.0275 0.757576 19.7144 1.48041 19.949 2.39724C20.3677 4.07218 20.3677 7.54538 20.3677 7.54538C20.3677 7.54538 20.3845 11.0364 19.9488 12.7112ZM8.17142 4.35423V10.7718L13.4653 7.56302L8.17142 4.35423Z" fill="#8C8C8C"/>
</svg>
