<svg
        width="37"
        height="31"
        viewBox="0 0 37 31"
        fill="none"
        xmlns="http://www.w3.org/2000/svg"
>
    <g clipPath="url(#clip0_823:1713)">
        <path
                d="M32.8522 31.2072H4.27009C1.98186 31.2072 0.121094 29.3582 0.121094 27.0843V6.01138C0.121094 3.73754 1.98186 1.88847 4.27009 1.88847H32.8522C35.1404 1.88847 37.0012 3.73754 37.0012 6.01138V27.0843C37.0012 29.3582 35.1404 31.2072 32.8522 31.2072ZM4.27009 4.63708C3.50667 4.63708 2.88709 5.25277 2.88709 6.01138V27.0843C2.88709 27.8429 3.50667 28.4586 4.27009 28.4586H32.8522C33.6156 28.4586 34.2352 27.8429 34.2352 27.0843V6.01138C34.2352 5.25277 33.6156 4.63708 32.8522 4.63708H4.27009Z"
                fill="#D4AA00"
        />
        <path
                d="M9.34045 14.7155C7.30647 14.7155 5.65234 13.0718 5.65234 11.0506C5.65234 9.02942 7.30647 7.38569 9.34045 7.38569C11.3744 7.38569 13.0282 9.02942 13.0282 11.0506C13.0282 13.0718 11.3744 14.7155 9.34045 14.7155ZM9.34045 10.1343C8.83128 10.1343 8.41834 10.545 8.41834 11.0506C8.41834 11.5563 8.83128 11.9669 9.34045 11.9669C9.84929 11.9669 10.2622 11.5563 10.2622 11.0506C10.2622 10.545 9.84929 10.1343 9.34045 10.1343Z"
                fill="#D4AA00"
        />
        <path
                d="M1.53857 29.338C1.18472 29.338 0.83053 29.2041 0.561426 28.9351C0.0211914 28.3982 0.0211914 27.5275 0.561426 26.9907L8.89623 18.7083C10.1577 17.4548 12.2099 17.4548 13.4693 18.7083L15.6988 20.9237L22.5473 12.7547C23.1594 12.0253 24.0576 11.6039 25.0111 11.5985C26.0362 11.5418 26.8661 12.0052 27.4837 12.7256L36.6633 23.368C37.1609 23.9435 37.0927 24.8121 36.5137 25.3067C35.9329 25.8016 35.0608 25.7338 34.5628 25.1584L25.3798 14.5122C25.2579 14.3673 25.1087 14.3747 25.0256 14.3488C24.9466 14.3488 24.7933 14.3726 24.6717 14.5156L16.8532 23.8428C16.604 24.1394 16.241 24.3193 15.8538 24.3357C15.4591 24.3575 15.0866 24.2072 14.8135 23.9344L11.513 20.6543C11.2787 20.4215 11.0852 20.4215 10.8509 20.6543L2.51606 28.9351C2.24662 29.2041 1.89277 29.338 1.53857 29.338Z"
                fill="#D4AA00"
        />
    </g>
    <defs>
        <clipPath id="clip0_823:1713">
            <rect width="37" height="31" fill="white"/>
        </clipPath>
    </defs>
</svg>
