<svg width="33" height="41" viewBox="0 0 33 41" fill="none" xmlns="http://www.w3.org/2000/svg">
    <path d="M22.5977 7.3044C21.1614 8.92759 18.9042 10.3479 16.647 10.145C16.2366 7.7102 17.4678 5.27541 18.699 3.85512C20.1354 2.02904 22.5977 0.811646 24.6497 0.811646C24.8549 3.04353 24.0341 5.47831 22.5977 7.3044ZM24.6497 10.5508C25.8809 10.5508 29.5745 10.9566 32.0369 14.6087C31.8317 14.8116 27.7277 17.2464 27.7277 22.3189C27.7277 28.4058 33.0629 30.4348 33.0629 30.4348C33.0629 30.6377 32.2421 33.2754 30.3953 36.116C28.7537 38.5508 26.9069 40.9856 24.2393 40.9856C21.5718 40.9856 20.751 39.3624 17.673 39.3624C14.595 39.3624 13.569 40.9856 11.1066 40.9856C8.43903 40.9856 6.38705 38.3479 4.74546 35.9131C1.25708 30.8406 -1.4105 21.7102 2.28307 15.6232C3.92466 12.5798 7.20784 10.5508 10.491 10.5508C13.1586 10.5508 15.621 12.3769 17.0574 12.3769C18.4938 12.3769 21.3666 10.3479 24.6497 10.5508Z" fill="black"/>
</svg>
