<svg width="67" height="67" viewBox="0 0 67 67" fill="none" xmlns="http://www.w3.org/2000/svg">
<g clip-path="url(#clip0_599:351)">
<path d="M33.5001 67.0001C52.0017 67.0001 67.0001 52.0017 67.0001 33.5001C67.0001 14.9985 52.0017 0 33.5001 0C14.9985 0 0 14.9985 0 33.5001C0 52.0017 14.9985 67.0001 33.5001 67.0001Z" fill="#D42428"/>
<path d="M57.1879 9.8083C70.2705 22.892 70.2716 44.1039 57.1879 57.1876C44.1053 70.2702 22.8923 70.2708 9.80859 57.1876L57.1879 9.8083Z" fill="#CC202D"/>
<path d="M51.0306 27.0355C51.0306 24.2271 48.7555 21.9509 45.9487 21.9509H22.1063C19.3 21.9509 17.0254 24.2277 17.0254 27.0355V40.6698C17.0254 43.4782 19.3005 45.7544 22.1063 45.7544H45.9483C48.7556 45.7544 51.0302 43.4776 51.0302 40.6698V27.0355H51.0306ZM30.6264 39.6045V26.7985L40.3379 33.2018L30.6264 39.6045Z" fill="white"/>
</g>
<defs>
<clipPath id="clip0_599:351">
<rect width="67" height="67" fill="white"/>
</clipPath>
</defs>
</svg>
