<svg width="60" height="60" viewBox="0 0 60 60" fill="none" xmlns="http://www.w3.org/2000/svg">
<ellipse cx="30" cy="30.5357" rx="30" ry="28.3929" fill="white"/>
<path d="M30 0C13.4312 0 0 13.4312 0 30C0 46.5688 13.4312 60 30 60C46.5688 60 60 46.5688 60 30C60 13.4312 46.5688 0 30 0ZM30 57.48C14.8233 57.48 2.51999 45.1767 2.51999 30C2.51999 14.8233 14.8233 2.51999 30 2.51999C45.1767 2.51999 57.48 14.8233 57.48 30C57.48 45.1767 45.1767 57.48 30 57.48Z" fill="url(#paint0_linear_599:362)"/>
<path d="M39.8752 44.16C41.6362 43.6313 42.8795 42.3495 43.389 40.5386L43.5387 40.0058L43.5584 25.7281C43.5735 15.0357 43.5593 11.3837 43.5011 11.1845C43.4398 10.9735 43.3432 10.7959 43.2159 10.6558C43.0301 10.5382 42.8058 10.4764 42.5522 10.4764C42.3769 10.4764 41.769 10.5629 41.2018 10.6686C38.6923 11.136 23.9006 14.1513 23.6484 14.2465C23.2575 14.3944 22.8702 14.7459 22.6866 15.119L22.531 15.4349C22.531 15.4349 22.4577 37.814 22.3442 38.0663C22.1716 38.4494 21.7894 38.8129 21.4369 38.9287C21.2698 38.9836 20.6088 39.1351 19.968 39.2656C17.0003 39.8703 15.898 40.3056 14.9655 41.2422C14.4363 41.7741 14.044 42.5002 13.8742 43.2623C13.7126 43.9906 13.7666 45.0806 13.9978 45.743C14.2395 46.4365 14.6291 47.0284 15.1386 47.4939C15.6014 47.8592 16.1479 48.1311 16.7622 48.2918C18.1209 48.6479 20.6638 48.252 21.9647 47.4825C22.5081 47.1606 23.2076 46.485 23.5715 45.9297C23.7152 45.7104 23.9322 45.2673 24.053 44.9464C24.4765 43.8208 24.4898 23.7721 24.5442 23.5194C24.6358 23.0914 24.9219 22.7774 25.3165 22.6712C25.6717 22.5755 39.9146 19.6935 40.3151 19.6362C40.668 19.5859 41.0013 19.7021 41.183 19.931C41.2911 19.9905 41.3817 20.0706 41.4458 20.1686C41.5611 20.3448 41.5685 20.6937 41.5854 27.041C41.6055 34.3469 41.6138 34.1757 41.226 34.6367C40.9441 34.9722 40.5911 35.1018 39.1437 35.4039C36.9414 35.864 36.1874 36.0828 35.3442 36.5044C34.2909 37.0308 33.7059 37.6076 33.2541 38.5657C32.9341 39.2436 32.8146 39.7517 32.8156 40.4265C32.8178 41.6327 33.2243 42.5752 34.1417 43.4981C34.2259 43.5828 34.3092 43.662 34.3926 43.7366C34.8549 44.1019 35.3259 44.3221 35.9183 44.4617C36.8118 44.6722 38.6305 44.5335 39.8752 44.16Z" fill="url(#paint1_linear_599:362)"/>
<defs>
<linearGradient id="paint0_linear_599:362" x1="13.1242" y1="8.09633" x2="47.2554" y2="52.3962" gradientUnits="userSpaceOnUse">
<stop stop-color="#FF5E50"/>
<stop offset="0.249" stop-color="#FE5C6C"/>
<stop offset="0.3765" stop-color="#E3658A"/>
<stop offset="0.497" stop-color="#B87EB0"/>
<stop offset="0.6267" stop-color="#916CFF"/>
<stop offset="0.7628" stop-color="#70BCFB" stop-opacity="0.917647"/>
<stop offset="1" stop-color="#21C7FE"/>
</linearGradient>
<linearGradient id="paint1_linear_599:362" x1="13.0321" y1="8.16716" x2="47.1633" y2="52.4671" gradientUnits="userSpaceOnUse">
<stop stop-color="#FF5E50"/>
<stop offset="0.249" stop-color="#FE5C6C"/>
<stop offset="0.3765" stop-color="#E3658A"/>
<stop offset="0.497" stop-color="#B87EB0"/>
<stop offset="0.6267" stop-color="#916CFF"/>
<stop offset="0.7628" stop-color="#70BCFB" stop-opacity="0.917647"/>
<stop offset="1" stop-color="#21C7FE"/>
</linearGradient>
</defs>
</svg>
