<svg width="52" height="52" viewBox="0 0 52 52" fill="none" xmlns="http://www.w3.org/2000/svg">
<circle cx="26.3714" cy="25.6286" r="24.1429" fill="white"/>
<path d="M26 0C11.6406 0 0 11.6406 0 26C0 40.3594 11.6406 52 26 52C40.3594 52 52 40.3594 52 26C52 11.6406 40.3594 0 26 0ZM37.3156 37.7331C36.9849 38.2988 36.39 38.6142 35.7788 38.6143C35.4741 38.6143 35.1655 38.5359 34.8834 38.3711C30.2112 35.6406 24.8136 35.2018 21.1074 35.3145C17.002 35.4394 13.9914 36.2498 13.9614 36.258C13.0151 36.5166 12.0371 35.9597 11.7775 35.0134C11.518 34.0673 12.073 33.0899 13.0188 32.8293C13.1545 32.792 16.3943 31.912 20.8995 31.7634C23.5532 31.6759 26.1079 31.8608 28.4916 32.313C31.5108 32.8858 34.2649 33.8911 36.6776 35.3011C37.5254 35.7965 37.8109 36.8855 37.3156 37.7331ZM40.621 30.868C40.2294 31.5381 39.5247 31.9117 38.8007 31.9118C38.4398 31.9118 38.0742 31.819 37.74 31.6237C32.2058 28.3893 25.812 27.8698 21.4221 28.0031C16.5591 28.1511 12.9928 29.1111 12.9574 29.1208C11.8367 29.4266 10.678 28.7675 10.3705 27.6466C10.0631 26.5258 10.7206 25.3682 11.841 25.0595C12.0017 25.0152 15.8392 23.9728 21.1758 23.7968C24.3193 23.6932 27.3453 23.9122 30.1689 24.4478C33.7452 25.1263 37.0074 26.3171 39.8653 27.9872C40.8696 28.574 41.2079 29.8639 40.621 30.868ZM42.6529 24.626C42.2102 24.626 41.7618 24.5122 41.3519 24.2726C28.1945 16.5833 11.127 21.1546 10.9561 21.2018C9.58053 21.5808 8.15848 20.7729 7.7796 19.3974C7.40059 18.022 8.20846 16.5998 9.58393 16.2209C9.78104 16.1666 14.4882 14.888 21.034 14.6722C24.8901 14.5452 28.6016 14.8137 32.065 15.4707C36.4517 16.3029 40.4534 17.7635 43.9587 19.8121C45.1905 20.5319 45.6055 22.114 44.8856 23.3457C44.4053 24.1677 43.5409 24.626 42.6529 24.626Z" fill="#00D95F"/>
</svg>
