<svg width="76" height="49" viewBox="0 0 76 49" fill="none" xmlns="http://www.w3.org/2000/svg">
<path d="M38.8274 30.9608C40.0046 29.7111 40.4116 28.0941 39.9781 26.3919L39.8504 25.8911L33.2003 14.3361C28.2205 5.68251 26.5039 2.73587 26.3639 2.60199C26.2158 2.45998 26.0548 2.36144 25.8865 2.30759C25.6813 2.29922 25.471 2.35397 25.2659 2.47237C25.1242 2.55423 24.673 2.90801 24.2637 3.25832C22.4526 4.80789 11.8989 14.1522 11.7394 14.347C11.4923 14.649 11.3432 15.1141 11.369 15.5015L11.3906 15.8296C11.3906 15.8296 21.7798 33.961 21.8057 34.2179C21.845 34.6084 21.7056 35.0807 21.4747 35.3389C21.3652 35.4614 20.9014 35.8925 20.4441 36.2972C18.3266 38.1718 17.6384 39.0385 17.3216 40.2312C17.1421 40.9084 17.1638 41.6787 17.3823 42.3743C17.5917 43.0387 18.1442 43.8948 18.6404 44.3226C19.1596 44.7705 19.751 45.0673 20.3804 45.2059C20.9252 45.2852 21.4941 45.2499 22.0659 45.093C23.3308 44.7467 25.2023 43.2393 25.8951 42.0096C26.1842 41.4957 26.4344 40.6228 26.4695 40.0038C26.4833 39.7594 26.4519 39.2998 26.3998 38.9839C26.2167 37.8759 16.8671 21.6571 16.7932 21.4274C16.6674 21.0385 16.7521 20.651 17.0216 20.3809C17.2642 20.1377 27.4363 11.1573 27.7334 10.924C27.9953 10.7185 28.3191 10.657 28.5729 10.7572C28.6881 10.7549 28.7988 10.7774 28.8963 10.8267C29.0719 10.9153 29.2407 11.194 32.2178 16.3189C35.6451 22.2175 35.5718 22.0752 35.4735 22.629C35.4021 23.032 35.1772 23.3016 34.1478 24.2217C32.5817 25.6219 32.0741 26.1508 31.5891 26.8854C30.9831 27.8029 30.7793 28.5425 30.8613 29.5282C30.919 30.2258 31.0597 30.6925 31.3754 31.2377C31.9404 32.212 32.7092 32.7844 33.8819 33.1024C33.9895 33.1316 34.0939 33.1567 34.1961 33.1782C34.7405 33.2577 35.2242 33.2158 35.7684 33.0522C36.5893 32.8053 37.9953 31.844 38.8274 30.9608V30.9608Z" stroke="white" stroke-width="2.5" stroke-miterlimit="10"/>
<path d="M67.4441 38.7243C68.5583 38.6576 69.4717 38.0739 70.0254 37.0751L70.1882 36.7812L72.1924 28.3487C73.6935 22.0338 74.1947 19.8742 74.1882 19.7484C74.1814 19.6152 74.1491 19.4967 74.0935 19.3962C74.0001 19.3008 73.8762 19.233 73.7264 19.1976C73.6228 19.1731 73.2516 19.1394 72.9017 19.1227C71.3539 19.0486 62.1942 18.7658 62.0319 18.7869C61.7803 18.8197 61.5024 18.9733 61.3419 19.1681L61.2059 19.333C61.2059 19.333 58.0395 32.5444 57.9372 32.6776C57.7818 32.8798 57.5053 33.0412 57.2809 33.0605C57.1745 33.0696 56.7628 33.0669 56.366 33.0545C54.5283 32.9976 53.8163 33.101 53.1347 33.5242C52.7478 33.7646 52.4147 34.1388 52.208 34.5654C52.0109 34.9731 51.8907 35.6246 51.9349 36.0482C51.9809 36.4916 52.1284 36.8957 52.3645 37.2418C52.5869 37.5222 52.8719 37.7591 53.2124 37.9398C53.9654 38.3398 55.523 38.4607 56.399 38.1877C56.7649 38.0734 57.2724 37.7718 57.5649 37.4946C57.6804 37.3851 57.8705 37.1536 57.9867 36.9808C58.3939 36.3749 61.1996 24.532 61.2671 24.3903C61.3809 24.1502 61.5937 24.0046 61.8417 23.997C62.0649 23.99 70.8818 24.2749 71.1264 24.297C71.3419 24.3165 71.5226 24.4317 71.598 24.5923C71.6535 24.6425 71.6959 24.7025 71.7201 24.7693C71.7637 24.8896 71.7193 25.0967 70.8435 28.849C69.8359 33.1682 69.8646 33.0682 69.5712 33.2864C69.3578 33.4453 69.1312 33.4726 68.2339 33.4491C66.8686 33.4135 66.3926 33.4376 65.8356 33.569C65.1398 33.733 64.7137 33.9921 64.3131 34.4951C64.0294 34.851 63.8879 35.1345 63.7943 35.5333C63.6273 36.2462 63.736 36.8598 64.1491 37.5331C64.1871 37.5948 64.2253 37.6533 64.2641 37.709C64.4862 37.9893 64.7338 38.1851 65.0643 38.3503C65.5628 38.5994 66.6566 38.7712 67.4441 38.7243V38.7243Z" stroke="white" stroke-width="2.5" stroke-miterlimit="10"/>
</svg>
