<svg width="565" height="579" viewBox="0 0 565 579" fill="none" xmlns="http://www.w3.org/2000/svg">
<g opacity="0.5">
<path d="M493.917 369.419C493.917 369.419 424.384 428.566 348.208 373.722C273.704 320.083 233.608 378.599 183.57 364.714C133.533 350.829 97.1475 281.713 153.434 227.546C203.644 179.224 175.445 147.832 171.613 120.098C167.781 92.3646 184.612 58.5936 184.612 58.5936" stroke="white" stroke-width="3" stroke-miterlimit="10"/>
<path d="M239.89 123.385C239.89 123.385 226.206 209.112 183.325 250.053C140.443 290.994 170.431 322.265 188.163 327.1C224.944 337.119 276.156 280.699 324.704 311.243C361.184 334.209 389.515 392.471 454.11 357.791" stroke="white" stroke-width="3" stroke-miterlimit="10"/>
<path d="M266.186 160.465C266.186 160.465 203.621 226.557 243.766 243.449C289.754 262.818 306.598 239.326 338.952 298.024C350.415 318.909 418.695 374.143 436.874 320.801" stroke="white" stroke-width="3" stroke-miterlimit="10"/>
</g>
</svg>
