<svg width="352" height="397" viewBox="0 0 352 397" fill="none" xmlns="http://www.w3.org/2000/svg">
<g opacity="0.5">
<path d="M169.582 42.1865C169.582 42.1865 225.809 70.4518 211.443 133.547C197.393 195.257 245.316 205.002 249.937 240.501C254.558 276.001 220.445 317.664 170.937 296.472C126.771 277.569 114.412 303.904 97.8317 313.784C81.2516 323.665 55.2891 322.048 55.2891 322.048" stroke="white" stroke-width="3" stroke-miterlimit="10"/>
<path d="M81.5838 269.55C81.5838 269.55 139.69 255.217 177.2 271.449C214.711 287.681 226.513 260.243 224.822 247.686C221.305 221.642 171.729 204.277 178.085 165.249C182.871 135.919 212.256 102.284 172.889 70.5839" stroke="white" stroke-width="3" stroke-miterlimit="10"/>
<path d="M98.0656 242.896C98.0656 242.896 156.832 264.873 156.777 234.847C156.725 200.446 137.286 196.059 165.867 159.753C176.049 146.866 192.783 88.6798 154.031 91.4617" stroke="white" stroke-width="3" stroke-miterlimit="10"/>
</g>
</svg>
