<svg width="321" height="180" viewBox="0 0 321 180" fill="none" xmlns="http://www.w3.org/2000/svg">
    <path d="M286.965 0.942383H33.0122C30.7057 0.942383 28.8359 2.81215 28.8359 5.11862V165.72C28.8359 168.026 30.7057 169.896 33.0122 169.896H286.965C289.272 169.896 291.142 168.026 291.142 165.72V5.11862C291.142 2.81215 289.272 0.942383 286.965 0.942383Z" fill="white"/>
    <path d="M28.8359 33.066V165.72C28.8359 166.269 28.9442 166.813 29.1546 167.32C29.365 167.827 29.6734 168.288 30.0621 168.676C30.4509 169.064 30.9123 169.371 31.4199 169.58C31.9276 169.79 32.4716 169.897 33.0208 169.896H286.965C288.074 169.896 289.137 169.456 289.922 168.673C290.706 167.89 291.148 166.828 291.15 165.72V33.066H28.8359Z" fill="url(#paint0_linear_837:69)"/>
    <path d="M276.658 49.2908H210.541C209.533 49.2908 208.715 50.1086 208.715 51.1173V146.974C208.715 147.982 209.533 148.8 210.541 148.8H276.658C277.667 148.8 278.485 147.982 278.485 146.974V51.1173C278.485 50.1086 277.667 49.2908 276.658 49.2908Z" fill="url(#paint1_linear_837:69)"/>
    <path d="M278.041 146.974V51.1089C278.041 50.3464 277.423 49.7283 276.66 49.7283L210.535 49.7283C209.773 49.7283 209.154 50.3464 209.154 51.1089V146.974C209.154 147.736 209.773 148.354 210.535 148.354H276.66C277.423 148.354 278.041 147.736 278.041 146.974Z" fill="#C7A2FF"/>
    <path d="M267.133 112.312H220.071C219.598 112.312 219.144 112.124 218.81 111.789C218.475 111.455 218.287 111.001 218.287 110.528C218.289 110.057 218.478 109.605 218.813 109.272C219.147 108.94 219.599 108.753 220.071 108.753H267.133C267.604 108.753 268.055 108.94 268.388 109.273C268.721 109.606 268.908 110.057 268.908 110.528C268.908 111 268.721 111.452 268.389 111.786C268.056 112.121 267.604 112.31 267.133 112.312Z" fill="white"/>
    <path d="M240.583 139.376H220.071C219.599 139.376 219.147 139.189 218.813 138.857C218.478 138.524 218.289 138.073 218.287 137.601C218.287 137.367 218.333 137.136 218.423 136.92C218.513 136.704 218.644 136.508 218.81 136.343C218.976 136.178 219.173 136.047 219.389 135.958C219.605 135.87 219.837 135.825 220.071 135.826H240.583C240.817 135.825 241.048 135.87 241.264 135.959C241.48 136.047 241.676 136.178 241.841 136.343C242.006 136.508 242.137 136.704 242.226 136.92C242.314 137.136 242.36 137.368 242.358 137.601C242.358 138.072 242.171 138.523 241.838 138.856C241.506 139.189 241.054 139.376 240.583 139.376Z" fill="white"/>
    <path d="M267.133 121.333H220.071C219.599 121.333 219.147 121.146 218.813 120.814C218.478 120.481 218.289 120.03 218.287 119.558C218.287 119.085 218.475 118.631 218.81 118.297C219.144 117.962 219.598 117.774 220.071 117.774H267.133C267.604 117.777 268.056 117.966 268.389 118.3C268.721 118.634 268.908 119.087 268.908 119.558C268.908 120.029 268.721 120.48 268.388 120.813C268.055 121.146 267.604 121.333 267.133 121.333Z" fill="white"/>
    <path d="M267.133 130.355H220.071C219.599 130.355 219.147 130.168 218.813 129.835C218.478 129.503 218.289 129.051 218.287 128.58C218.287 128.107 218.475 127.653 218.81 127.318C219.144 126.984 219.598 126.796 220.071 126.796H267.133C267.604 126.798 268.056 126.987 268.389 127.321C268.721 127.656 268.908 128.108 268.908 128.58C268.908 129.05 268.721 129.502 268.388 129.835C268.055 130.168 267.604 130.355 267.133 130.355Z" fill="white"/>
    <path d="M213.921 55.5166C214.84 55.5166 215.585 54.7718 215.585 53.853C215.585 52.9342 214.84 52.1893 213.921 52.1893C213.003 52.1893 212.258 52.9342 212.258 53.853C212.258 54.7718 213.003 55.5166 213.921 55.5166Z" fill="#FFC3D0"/>
    <path d="M220.578 55.5166C221.497 55.5166 222.241 54.7718 222.241 53.853C222.241 52.9342 221.497 52.1893 220.578 52.1893C219.659 52.1893 218.914 52.9342 218.914 53.853C218.914 54.7718 219.659 55.5166 220.578 55.5166Z" fill="#F5D79B"/>
    <path d="M228.898 53.8359C228.898 54.1649 228.8 54.4866 228.617 54.7601C228.434 55.0337 228.175 55.247 227.871 55.3729C227.567 55.4988 227.232 55.5317 226.909 55.4676C226.587 55.4034 226.29 55.2449 226.058 55.0122C225.825 54.7796 225.666 54.4832 225.602 54.1604C225.538 53.8377 225.571 53.5032 225.697 53.1992C225.823 52.8952 226.036 52.6354 226.31 52.4526C226.583 52.2698 226.905 52.1722 227.234 52.1722C227.675 52.1722 228.098 52.3475 228.41 52.6595C228.722 52.9715 228.898 53.3947 228.898 53.8359Z" fill="#6AEBE7"/>
    <path d="M274.918 58.2351H212.283V101.464H274.918V58.2351Z" fill="white"/>
    <path d="M253.669 92.8627L252.64 91.7822L225.662 63.4232L212.275 77.4955L212.31 101.481L274.945 101.447L274.928 89.8956L265.709 80.2054L253.669 92.8627Z" fill="#6C56AB"/>
    <path d="M253.299 79.8024C256.936 79.8024 259.885 76.8538 259.885 73.2164C259.885 69.5791 256.936 66.6305 253.299 66.6305C249.662 66.6305 246.713 69.5791 246.713 73.2164C246.713 76.8538 249.662 79.8024 253.299 79.8024Z" fill="#C7A2FF"/>
    <path d="M44.0766 9.17486C44.0766 9.59209 43.9528 9.99995 43.721 10.3469C43.4892 10.6938 43.1598 10.9642 42.7743 11.1238C42.3888 11.2835 41.9647 11.3253 41.5554 11.2439C41.1462 11.1625 40.7703 10.9616 40.4753 10.6665C40.1803 10.3715 39.9794 9.99563 39.898 9.58641C39.8166 9.1772 39.8583 8.75303 40.018 8.36756C40.1777 7.98209 40.4481 7.65263 40.795 7.42083C41.1419 7.18903 41.5498 7.06531 41.967 7.06531C42.5265 7.06531 43.0631 7.28755 43.4587 7.68317C43.8543 8.07879 44.0766 8.61537 44.0766 9.17486Z" fill="#FFC3D0"/>
    <path d="M52.4906 9.17486C52.4906 9.59209 52.3669 9.99995 52.1351 10.3469C51.9033 10.6938 51.5738 10.9642 51.1884 11.1238C50.8029 11.2835 50.3787 11.3253 49.9695 11.2439C49.5603 11.1625 49.1844 10.9616 48.8894 10.6665C48.5943 10.3715 48.3934 9.99563 48.312 9.58641C48.2306 9.1772 48.2724 8.75303 48.4321 8.36756C48.5918 7.98209 48.8621 7.65263 49.209 7.42083C49.556 7.18903 49.9638 7.06531 50.3811 7.06531C50.9405 7.06531 51.4771 7.28755 51.8727 7.68317C52.2683 8.07879 52.4906 8.61537 52.4906 9.17486Z" fill="#F5D79B"/>
    <path d="M60.9086 9.17486C60.9086 9.59209 60.7849 9.99995 60.5531 10.3469C60.3213 10.6938 59.9918 10.9642 59.6063 11.1238C59.2208 11.2835 58.7967 11.3253 58.3875 11.2439C57.9783 11.1625 57.6024 10.9616 57.3073 10.6665C57.0123 10.3715 56.8114 9.99563 56.73 9.58641C56.6486 9.1772 56.6904 8.75303 56.85 8.36756C57.0097 7.98209 57.2801 7.65263 57.627 7.42083C57.9739 7.18903 58.3818 7.06531 58.799 7.06531C59.3585 7.06531 59.8951 7.28755 60.2907 7.68317C60.6863 8.07879 60.9086 8.61537 60.9086 9.17486Z" fill="#6AEBE7"/>
    <path d="M275.062 26.1027C277.624 26.1027 279.701 24.0256 279.701 21.4634C279.701 18.9012 277.624 16.8241 275.062 16.8241L44.9312 16.8241C42.369 16.8241 40.2919 18.9012 40.2919 21.4634C40.2919 24.0256 42.369 26.1027 44.9312 26.1027L275.062 26.1027Z" fill="#E9DDFF"/>
    <path d="M146.046 22.7754H46.7249C46.5515 22.7754 46.3798 22.7412 46.2196 22.6749C46.0593 22.6085 45.9137 22.5112 45.7911 22.3886C45.6685 22.266 45.5712 22.1204 45.5048 21.9602C45.4385 21.7999 45.4043 21.6282 45.4043 21.4548C45.4043 21.2814 45.4385 21.1096 45.5048 20.9494C45.5712 20.7892 45.6685 20.6436 45.7911 20.521C45.9137 20.3983 46.0593 20.3011 46.2196 20.2347C46.3798 20.1683 46.5515 20.1342 46.7249 20.1342H146.046C146.396 20.1342 146.732 20.2733 146.98 20.521C147.227 20.7686 147.366 21.1045 147.366 21.4548C147.366 21.805 147.227 22.1409 146.98 22.3886C146.732 22.6363 146.396 22.7754 146.046 22.7754Z" fill="white"/>
    <path d="M195.527 22.7754H155.385C155.035 22.7754 154.699 22.6363 154.451 22.3886C154.204 22.1409 154.064 21.805 154.064 21.4548C154.064 21.1045 154.204 20.7686 154.451 20.521C154.699 20.2733 155.035 20.1342 155.385 20.1342H195.527C195.877 20.1342 196.213 20.2733 196.461 20.521C196.708 20.7686 196.847 21.1045 196.847 21.4548C196.847 21.805 196.708 22.1409 196.461 22.3886C196.213 22.6363 195.877 22.7754 195.527 22.7754Z" fill="white"/>
    <path d="M43.4316 135.526C43.4333 136.123 43.2575 136.708 42.9265 137.206C42.5955 137.704 42.1241 138.092 41.5722 138.321C41.0203 138.551 40.4126 138.611 39.8263 138.495C39.24 138.379 38.7013 138.091 38.2787 137.669C37.856 137.246 37.5683 136.707 37.4521 136.121C37.3359 135.535 37.3964 134.927 37.6259 134.375C37.8555 133.823 38.2437 133.352 38.7414 133.021C39.2391 132.69 39.8239 132.514 40.4216 132.516C41.2193 132.518 41.9835 132.836 42.5475 133.4C43.1115 133.964 43.4294 134.728 43.4316 135.526Z" fill="#C7A2FF"/>
    <path d="M113.478 49.2908H17.6215C16.6127 49.2908 15.7949 50.1086 15.7949 51.1173V146.974C15.7949 147.982 16.6127 148.8 17.6215 148.8H113.478C114.487 148.8 115.304 147.982 115.304 146.974V51.1173C115.304 50.1086 114.487 49.2908 113.478 49.2908Z" fill="white"/>
    <path d="M17.6237 147.034L17.5723 101.507L113.48 101.481L113.54 147L113.48 147.034H17.6237Z" fill="#6C56AB"/>
    <path d="M17.5723 51.1174L17.6237 101.481H113.48V51.0574L17.5723 51.1174Z" fill="#E9DDFF"/>
    <path d="M79.424 75.0944C79.424 74.5099 79.1918 73.9493 78.7785 73.536C78.3652 73.1227 77.8046 72.8905 77.2201 72.8905H69.2878C70.4694 71.0575 71.0976 68.9227 71.0972 66.7419V65.6614C71.0972 64.8904 70.7909 64.151 70.2458 63.6058C69.7006 63.0606 68.9611 62.7543 68.1901 62.7543C67.8215 62.7519 67.4667 62.8944 67.2021 63.151C66.9375 63.4076 66.7842 63.7579 66.7752 64.1264V66.699L60.4294 75C60.3163 75.1508 60.256 75.3347 60.2579 75.5231V88.5578C60.2579 88.7853 60.3482 89.0034 60.509 89.1642C60.6699 89.325 60.888 89.4154 61.1154 89.4154H75.7623C76.2604 89.4154 76.738 89.2175 77.0902 88.8653C77.4424 88.5131 77.6403 88.0354 77.6403 87.5373C77.6403 87.0393 77.4424 86.5616 77.0902 86.2094C76.738 85.8572 76.2604 85.6593 75.7623 85.6593H76.4654C77.0053 85.6593 77.5231 85.4455 77.9056 85.0646C78.2881 84.6837 78.5041 84.1668 78.5064 83.6269C78.5064 83.0856 78.2914 82.5665 77.9086 82.1838C77.5259 81.801 77.0067 81.586 76.4654 81.586H76.8428C77.4114 81.586 77.9567 81.3601 78.3587 80.9581C78.7608 80.556 78.9866 80.0107 78.9866 79.4421C78.9866 78.8735 78.7608 78.3282 78.3587 77.9262C77.9567 77.5241 77.4114 77.2983 76.8428 77.2983H77.2115C77.5017 77.2994 77.7892 77.2432 78.0575 77.133C78.3259 77.0227 78.5699 76.8606 78.7755 76.6558C78.981 76.451 79.1441 76.2077 79.2554 75.9398C79.3667 75.6718 79.424 75.3845 79.424 75.0944Z" fill="white"/>
    <path d="M57.7901 74.3396H52.8249C52.1903 74.3396 51.6758 74.8541 51.6758 75.4887V90.3928C51.6758 91.0275 52.1903 91.5419 52.8249 91.5419H57.7901C58.4247 91.5419 58.9392 91.0275 58.9392 90.3928V75.4887C58.9392 74.8541 58.4247 74.3396 57.7901 74.3396Z" fill="white"/>
    <path d="M43.4336 113.006C43.4353 113.604 43.2595 114.189 42.9285 114.687C42.5974 115.184 42.1261 115.573 41.5741 115.802C41.0222 116.032 40.4146 116.092 39.8283 115.976C39.2419 115.86 38.7033 115.572 38.2806 115.149C37.8579 114.727 37.5703 114.188 37.4541 113.602C37.3379 113.015 37.3984 112.408 37.6279 111.856C37.8574 111.304 38.2457 110.833 38.7434 110.502C39.2411 110.171 39.8259 109.995 40.4236 109.996C41.2219 109.996 41.9875 110.314 42.552 110.878C43.1165 111.443 43.4336 112.208 43.4336 113.006Z" fill="#C7A2FF"/>
    <path d="M91.995 114.627H49.2207C48.784 114.627 48.3653 114.453 48.0565 114.145C47.7477 113.836 47.5742 113.417 47.5742 112.98C47.5742 112.544 47.7477 112.125 48.0565 111.816C48.3653 111.507 48.784 111.334 49.2207 111.334H91.995C92.2109 111.334 92.4245 111.377 92.6238 111.459C92.8231 111.542 93.0041 111.664 93.1563 111.817C93.3085 111.97 93.4289 112.151 93.5107 112.351C93.5925 112.551 93.6341 112.765 93.6329 112.98C93.6341 113.196 93.5925 113.41 93.5107 113.61C93.4289 113.81 93.3085 113.991 93.1563 114.144C93.0041 114.297 92.8231 114.419 92.6238 114.501C92.4245 114.584 92.2109 114.627 91.995 114.627Z" fill="url(#paint2_linear_837:69)"/>
    <path d="M43.4336 124.257C43.4336 124.855 43.2563 125.439 42.9243 125.935C42.5922 126.432 42.1203 126.819 41.5682 127.047C41.0161 127.275 40.4088 127.334 39.823 127.217C39.2372 127.1 38.6994 126.812 38.2776 126.389C37.8558 125.966 37.5689 125.427 37.4534 124.841C37.3379 124.255 37.3989 123.648 37.6287 123.096C37.8585 122.545 38.2467 122.074 38.7443 121.743C39.2418 121.413 39.8262 121.237 40.4236 121.239C40.8196 121.239 41.2117 121.317 41.5775 121.469C41.9432 121.621 42.2754 121.843 42.555 122.123C42.8346 122.404 43.0562 122.737 43.2069 123.103C43.3577 123.469 43.4347 123.861 43.4336 124.257Z" fill="#C7A2FF"/>
    <path d="M91.995 122.611H49.2207C48.3114 122.611 47.5742 123.348 47.5742 124.257C47.5742 125.167 48.3114 125.904 49.2207 125.904H91.995C92.9044 125.904 93.6415 125.167 93.6415 124.257C93.6415 123.348 92.9044 122.611 91.995 122.611Z" fill="url(#paint3_linear_837:69)"/>
    <path d="M91.995 137.172H49.2207C48.784 137.172 48.3653 136.999 48.0565 136.69C47.7477 136.381 47.5742 135.962 47.5742 135.526C47.5742 135.31 47.6169 135.096 47.6997 134.897C47.7826 134.697 47.904 134.516 48.057 134.364C48.21 134.212 48.3916 134.092 48.5913 134.01C48.791 133.928 49.0049 133.886 49.2207 133.888H91.995C92.2104 133.886 92.4239 133.928 92.6232 134.01C92.8224 134.092 93.0034 134.212 93.1557 134.365C93.3081 134.517 93.4287 134.698 93.5106 134.897C93.5925 135.097 93.6341 135.31 93.6329 135.526C93.6341 135.741 93.5925 135.955 93.5107 136.155C93.4289 136.355 93.3085 136.536 93.1563 136.689C93.0041 136.842 92.8231 136.964 92.6238 137.046C92.4245 137.129 92.2109 137.172 91.995 137.172Z" fill="url(#paint4_linear_837:69)"/>
    <path d="M162.176 93.8488C170.28 93.8488 176.849 87.2797 176.849 79.1762C176.849 71.0728 170.28 64.5037 162.176 64.5037C154.073 64.5037 147.504 71.0728 147.504 79.1762C147.504 87.2797 154.073 93.8488 162.176 93.8488Z" fill="url(#paint5_linear_837:69)"/>
    <path d="M195.021 49.2908H128.905C127.896 49.2908 127.078 50.1086 127.078 51.1173V146.974C127.078 147.982 127.896 148.8 128.905 148.8H195.021C196.03 148.8 196.848 147.982 196.848 146.974V51.1173C196.848 50.1086 196.03 49.2908 195.021 49.2908Z" fill="white"/>
    <path d="M193.282 58.235H130.646V101.464H193.282V58.235Z" fill="#E9DDFF"/>
    <path d="M162.175 93.4544C159.351 93.4544 156.59 92.617 154.242 91.0481C151.894 89.4792 150.064 87.2493 148.983 84.6403C147.903 82.0313 147.62 79.1605 148.171 76.3908C148.722 73.6211 150.082 71.077 152.078 69.0802C154.075 67.0833 156.619 65.7235 159.389 65.1726C162.159 64.6216 165.03 64.9044 167.639 65.9851C170.248 67.0657 172.478 68.8958 174.046 71.2438C175.615 73.5918 176.453 76.3524 176.453 79.1763C176.45 82.9624 174.945 86.5928 172.268 89.27C169.591 91.9471 165.961 93.4522 162.175 93.4544Z" fill="#C7A2FF"/>
    <path d="M185.495 112.312H138.433C137.962 112.309 137.51 112.121 137.178 111.786C136.845 111.452 136.658 111 136.658 110.528C136.658 110.057 136.845 109.606 137.178 109.273C137.511 108.94 137.963 108.753 138.433 108.753H185.495C185.967 108.753 186.419 108.94 186.754 109.272C187.088 109.605 187.277 110.056 187.279 110.528C187.279 111.001 187.091 111.455 186.757 111.789C186.422 112.124 185.968 112.312 185.495 112.312Z" fill="#C7A2FF"/>
    <path d="M158.954 139.376H138.433C137.963 139.376 137.511 139.189 137.178 138.856C136.845 138.523 136.658 138.072 136.658 137.601C136.658 137.13 136.845 136.679 137.178 136.346C137.511 136.013 137.963 135.826 138.433 135.826H158.954C159.425 135.826 159.877 136.013 160.21 136.346C160.542 136.679 160.729 137.13 160.729 137.601C160.729 138.072 160.542 138.523 160.21 138.856C159.877 139.189 159.425 139.376 158.954 139.376Z" fill="#C7A2FF"/>
    <path d="M185.495 121.333H138.433C137.963 121.333 137.511 121.146 137.178 120.813C136.845 120.48 136.658 120.029 136.658 119.558C136.658 119.087 136.845 118.634 137.178 118.3C137.51 117.966 137.962 117.777 138.433 117.774H185.495C185.968 117.774 186.422 117.962 186.757 118.297C187.091 118.631 187.279 119.085 187.279 119.558C187.277 120.03 187.088 120.481 186.754 120.814C186.419 121.146 185.967 121.333 185.495 121.333Z" fill="#C7A2FF"/>
    <path d="M185.495 130.355H138.433C137.963 130.355 137.511 130.168 137.178 129.835C136.845 129.502 136.658 129.05 136.658 128.579C136.658 128.108 136.845 127.656 137.178 127.321C137.51 126.987 137.962 126.798 138.433 126.796H185.495C185.968 126.796 186.422 126.984 186.757 127.318C187.091 127.653 187.279 128.106 187.279 128.579C187.277 129.051 187.088 129.503 186.754 129.835C186.419 130.168 185.967 130.355 185.495 130.355Z" fill="#C7A2FF"/>
    <path d="M132.285 55.5166C133.204 55.5166 133.948 54.7718 133.948 53.853C133.948 52.9342 133.204 52.1893 132.285 52.1893C131.366 52.1893 130.621 52.9342 130.621 53.853C130.621 54.7718 131.366 55.5166 132.285 55.5166Z" fill="#FFC3D0"/>
    <path d="M138.947 55.5166C139.866 55.5166 140.61 54.7718 140.61 53.853C140.61 52.9342 139.866 52.1893 138.947 52.1893C138.028 52.1893 137.283 52.9342 137.283 53.853C137.283 54.7718 138.028 55.5166 138.947 55.5166Z" fill="#F5D79B"/>
    <path d="M145.603 55.5166C146.522 55.5166 147.267 54.7718 147.267 53.853C147.267 52.9342 146.522 52.1893 145.603 52.1893C144.684 52.1893 143.939 52.9342 143.939 53.853C143.939 54.7718 144.684 55.5166 145.603 55.5166Z" fill="#6AEBE7"/>
    <path d="M264.456 29.1814H320.694V86.0452C320.694 86.9162 320.348 87.7516 319.732 88.3676C319.116 88.9835 318.28 89.3296 317.409 89.3296H267.732C267.3 89.3296 266.873 89.2446 266.475 89.0796C266.076 88.9145 265.714 88.6726 265.409 88.3676C265.104 88.0626 264.862 87.7005 264.697 87.3021C264.532 86.9036 264.447 86.4765 264.447 86.0452V29.1814H264.456Z" fill="white"/>
    <path d="M267.733 22.1066H317.41C318.281 22.1066 319.117 22.4526 319.733 23.0685C320.349 23.6845 320.695 24.5199 320.695 25.391V29.1642H264.457V25.391C264.457 24.5214 264.802 23.6873 265.416 23.0716C266.03 22.4559 266.863 22.1088 267.733 22.1066Z" fill="#4D3B8B"/>
    <path d="M271 25.5369C271.014 25.6921 270.995 25.8484 270.945 25.996C270.895 26.1435 270.815 26.279 270.71 26.3939C270.604 26.5087 270.476 26.6005 270.334 26.6632C270.191 26.726 270.037 26.7584 269.881 26.7584C269.725 26.7584 269.571 26.726 269.429 26.6632C269.286 26.6005 269.158 26.5087 269.053 26.3939C268.948 26.279 268.867 26.1435 268.817 25.996C268.767 25.8484 268.748 25.6921 268.762 25.5369C268.787 25.257 268.915 24.9965 269.122 24.8067C269.329 24.6169 269.6 24.5116 269.881 24.5116C270.162 24.5116 270.433 24.6169 270.64 24.8067C270.847 24.9965 270.976 25.257 271 25.5369Z" fill="#FFC3D0"/>
    <path d="M275.871 25.5369C275.885 25.6921 275.866 25.8484 275.816 25.996C275.766 26.1435 275.686 26.279 275.581 26.3939C275.475 26.5087 275.347 26.6005 275.205 26.6632C275.062 26.726 274.908 26.7584 274.752 26.7584C274.597 26.7584 274.442 26.726 274.3 26.6632C274.157 26.6005 274.029 26.5087 273.924 26.3939C273.819 26.279 273.739 26.1435 273.689 25.996C273.638 25.8484 273.62 25.6921 273.633 25.5369C273.658 25.257 273.786 24.9965 273.993 24.8067C274.201 24.6169 274.471 24.5116 274.752 24.5116C275.033 24.5116 275.304 24.6169 275.511 24.8067C275.718 24.9965 275.847 25.257 275.871 25.5369Z" fill="#F5D79B"/>
    <path d="M280.734 25.5368C280.734 25.7573 280.668 25.9728 280.546 26.1562C280.423 26.3395 280.249 26.4824 280.045 26.5668C279.842 26.6511 279.617 26.6732 279.401 26.6302C279.185 26.5872 278.986 26.481 278.83 26.3251C278.675 26.1692 278.568 25.9705 278.525 25.7543C278.482 25.538 278.504 25.3139 278.589 25.1102C278.673 24.9065 278.816 24.7324 278.999 24.6099C279.183 24.4874 279.398 24.422 279.619 24.422C279.914 24.4242 280.196 24.5424 280.405 24.751C280.613 24.9596 280.731 25.2418 280.734 25.5368Z" fill="#6AEBE7"/>
    <path d="M279.097 41.9243C279.097 42.7724 278.845 43.6013 278.374 44.3064C277.903 45.0116 277.234 45.5611 276.45 45.8857C275.667 46.2102 274.804 46.2951 273.973 46.1297C273.141 45.9642 272.377 45.5559 271.777 44.9562C271.178 44.3566 270.769 43.5925 270.604 42.7608C270.438 41.9291 270.523 41.067 270.848 40.2835C271.172 39.5 271.722 38.8303 272.427 38.3592C273.132 37.8881 273.961 37.6366 274.809 37.6366C275.946 37.6366 277.037 38.0883 277.841 38.8924C278.645 39.6965 279.097 40.7871 279.097 41.9243Z" fill="#E9DDFF"/>
    <path d="M312.188 38.7517H283.778C283.266 38.7517 282.852 39.1664 282.852 39.6779V39.8151C282.852 40.3266 283.266 40.7412 283.778 40.7412H312.188C312.7 40.7412 313.114 40.3266 313.114 39.8151V39.6779C313.114 39.1664 312.7 38.7517 312.188 38.7517Z" fill="#C7A2FF"/>
    <path d="M298.802 43.7169H283.778C283.266 43.7169 282.852 44.1316 282.852 44.6431V44.7803C282.852 45.2918 283.266 45.7064 283.778 45.7064H298.802C299.313 45.7064 299.728 45.2918 299.728 44.7803V44.6431C299.728 44.1316 299.313 43.7169 298.802 43.7169Z" fill="#C7A2FF"/>
    <path d="M305.566 45.7065H302.727C302.463 45.7065 302.21 45.6017 302.024 45.4151C301.837 45.2285 301.732 44.9755 301.732 44.7117C301.732 44.4479 301.837 44.1949 302.024 44.0083C302.21 43.8218 302.463 43.717 302.727 43.717H305.566C305.697 43.7158 305.826 43.7408 305.948 43.7904C306.069 43.8399 306.179 43.9132 306.272 44.0058C306.364 44.0984 306.437 44.2085 306.487 44.3297C306.537 44.4509 306.562 44.5808 306.56 44.7117C306.562 44.8427 306.537 44.9725 306.487 45.0937C306.437 45.2149 306.364 45.3251 306.272 45.4177C306.179 45.5103 306.069 45.5835 305.948 45.6331C305.826 45.6827 305.697 45.7076 305.566 45.7065Z" fill="#C7A2FF"/>
    <path d="M279.097 57.0087C279.097 57.8567 278.845 58.6857 278.374 59.3908C277.903 60.0959 277.234 60.6455 276.45 60.97C275.667 61.2945 274.804 61.3795 273.973 61.214C273.141 61.0486 272.377 60.6402 271.777 60.0406C271.178 59.4409 270.769 58.6769 270.604 57.8452C270.438 57.0134 270.523 56.1513 270.848 55.3678C271.172 54.5843 271.722 53.9147 272.427 53.4436C273.132 52.9724 273.961 52.7209 274.809 52.7209C275.946 52.7209 277.037 53.1727 277.841 53.9768C278.645 54.7809 279.097 55.8715 279.097 57.0087Z" fill="#E9DDFF"/>
    <path d="M312.188 53.8358H283.778C283.266 53.8358 282.852 54.2505 282.852 54.762V54.8992C282.852 55.4107 283.266 55.8253 283.778 55.8253H312.188C312.7 55.8253 313.114 55.4107 313.114 54.8992V54.762C313.114 54.2505 312.7 53.8358 312.188 53.8358Z" fill="#C7A2FF"/>
    <path d="M298.802 58.8009H283.778C283.266 58.8009 282.852 59.2156 282.852 59.7271V59.8643C282.852 60.3758 283.266 60.7904 283.778 60.7904H298.802C299.313 60.7904 299.728 60.3758 299.728 59.8643V59.7271C299.728 59.2156 299.313 58.8009 298.802 58.8009Z" fill="#C7A2FF"/>
    <path d="M305.567 60.7904H302.728C302.473 60.7885 302.229 60.6886 302.045 60.5114C301.862 60.3343 301.753 60.0934 301.742 59.8385C301.741 59.7076 301.766 59.5777 301.816 59.4565C301.865 59.3353 301.938 59.2252 302.031 59.1326C302.124 59.04 302.234 58.9668 302.355 58.9172C302.476 58.8676 302.606 58.8426 302.737 58.8438H305.575C305.706 58.8426 305.836 58.8676 305.957 58.9172C306.079 58.9668 306.189 59.04 306.281 59.1326C306.374 59.2252 306.447 59.3353 306.497 59.4565C306.546 59.5777 306.571 59.7076 306.57 59.8385C306.561 60.0971 306.451 60.3418 306.263 60.5198C306.076 60.6979 305.826 60.7951 305.567 60.7904Z" fill="#C7A2FF"/>
    <path d="M279.097 72.0844C279.097 72.9324 278.845 73.7614 278.374 74.4665C277.903 75.1716 277.234 75.7212 276.45 76.0457C275.667 76.3702 274.804 76.4551 273.973 76.2897C273.141 76.1243 272.377 75.7159 271.777 75.1162C271.178 74.5166 270.769 73.7526 270.604 72.9208C270.438 72.0891 270.523 71.227 270.848 70.4435C271.172 69.66 271.722 68.9904 272.427 68.5192C273.132 68.0481 273.961 67.7966 274.809 67.7966C275.946 67.7966 277.037 68.2484 277.841 69.0525C278.645 69.8566 279.097 70.9472 279.097 72.0844Z" fill="#E9DDFF"/>
    <path d="M312.188 68.9114H283.778C283.266 68.9114 282.852 69.326 282.852 69.8375V69.9747C282.852 70.4862 283.266 70.9009 283.778 70.9009H312.188C312.7 70.9009 313.114 70.4862 313.114 69.9747V69.8375C313.114 69.326 312.7 68.9114 312.188 68.9114Z" fill="#C7A2FF"/>
    <path d="M298.802 73.8766H283.778C283.266 73.8766 282.852 74.2912 282.852 74.8027V74.9399C282.852 75.4514 283.266 75.8661 283.778 75.8661H298.802C299.313 75.8661 299.728 75.4514 299.728 74.9399V74.8027C299.728 74.2912 299.313 73.8766 298.802 73.8766Z" fill="#C7A2FF"/>
    <path d="M305.566 75.8661H302.727C302.463 75.8661 302.21 75.7613 302.024 75.5748C301.837 75.3882 301.732 75.1352 301.732 74.8714C301.732 74.6076 301.837 74.3545 302.024 74.168C302.21 73.9814 302.463 73.8766 302.727 73.8766H305.566C305.697 73.8755 305.826 73.9004 305.948 73.95C306.069 73.9996 306.179 74.0728 306.272 74.1654C306.364 74.258 306.437 74.3682 306.487 74.4894C306.537 74.6106 306.562 74.7404 306.56 74.8714C306.562 75.0023 306.537 75.1322 306.487 75.2534C306.437 75.3746 306.364 75.4847 306.272 75.5773C306.179 75.6699 306.069 75.7432 305.948 75.7927C305.826 75.8423 305.697 75.8673 305.566 75.8661Z" fill="#C7A2FF"/>
    <path d="M0.253906 138.029H56.4831V151.536C56.4831 152.407 56.1371 153.242 55.5211 153.858C54.9052 154.474 54.0698 154.82 53.1987 154.82H3.53832C2.66724 154.82 1.83184 154.474 1.2159 153.858C0.599952 153.242 0.253906 152.407 0.253906 151.536V138.029Z" fill="white"/>
    <path d="M3.53832 131.015H53.2159C54.0869 131.015 54.9223 131.361 55.5383 131.977C56.1542 132.593 56.5003 133.428 56.5003 134.299V138.064H0.253906V134.299C0.253906 133.428 0.599952 132.593 1.2159 131.977C1.83184 131.361 2.66724 131.015 3.53832 131.015Z" fill="#4D3B8B"/>
    <path d="M6.79947 134.368C6.80117 134.591 6.7365 134.809 6.61372 134.995C6.49093 135.181 6.31558 135.326 6.10997 135.413C5.90435 135.499 5.67777 135.522 5.45906 135.479C5.24035 135.435 5.0394 135.328 4.88177 135.171C4.72415 135.013 4.61698 134.812 4.57391 134.593C4.53084 134.375 4.5538 134.148 4.63988 133.942C4.72597 133.737 4.8713 133.562 5.05735 133.439C5.2434 133.316 5.46177 133.251 5.68468 133.253C5.97965 133.255 6.2619 133.373 6.47049 133.582C6.67907 133.791 6.79723 134.073 6.79947 134.368Z" fill="#FFC3D0"/>
    <path d="M11.6702 134.368C11.6838 134.523 11.665 134.679 11.6149 134.827C11.5648 134.974 11.4846 135.11 11.3794 135.225C11.2742 135.34 11.1462 135.431 11.0036 135.494C10.861 135.557 10.7069 135.589 10.5511 135.589C10.3953 135.589 10.2412 135.557 10.0986 135.494C9.95603 135.431 9.82807 135.34 9.72282 135.225C9.61758 135.11 9.53738 134.974 9.48732 134.827C9.43726 134.679 9.41842 134.523 9.43202 134.368C9.45655 134.088 9.58507 133.827 9.79223 133.638C9.99939 133.448 10.2701 133.343 10.5511 133.343C10.8321 133.343 11.1028 133.448 11.31 133.638C11.5172 133.827 11.6457 134.088 11.6702 134.368Z" fill="#F5D79B"/>
    <path d="M16.5413 134.368C16.5549 134.523 16.5361 134.679 16.486 134.827C16.436 134.974 16.3558 135.11 16.2505 135.225C16.1453 135.34 16.0173 135.431 15.8747 135.494C15.7321 135.557 15.578 135.589 15.4222 135.589C15.2664 135.589 15.1123 135.557 14.9697 135.494C14.8272 135.431 14.6992 135.34 14.5939 135.225C14.4887 135.11 14.4085 134.974 14.3584 134.827C14.3084 134.679 14.2895 134.523 14.3031 134.368C14.3276 134.088 14.4562 133.827 14.6633 133.638C14.8705 133.448 15.1412 133.343 15.4222 133.343C15.7032 133.343 15.974 133.448 16.1811 133.638C16.3883 133.827 16.5168 134.088 16.5413 134.368Z" fill="#6AEBE7"/>
    <path d="M14.8938 146.348C14.8938 147.196 14.6423 148.025 14.1712 148.73C13.7001 149.435 13.0304 149.984 12.2469 150.309C11.4634 150.634 10.6013 150.718 9.76958 150.553C8.93784 150.388 8.17386 149.979 7.57422 149.38C6.97457 148.78 6.56619 148.016 6.40074 147.184C6.2353 146.352 6.32023 145.49 6.64476 144.707C6.96928 143.923 7.51883 143.254 8.22394 142.783C8.92905 142.311 9.75805 142.06 10.6061 142.06C11.7433 142.06 12.8338 142.512 13.638 143.316C14.4421 144.12 14.8938 145.21 14.8938 146.348Z" fill="#E9DDFF"/>
    <path d="M47.987 143.175H19.5765C19.065 143.175 18.6504 143.59 18.6504 144.101V144.238C18.6504 144.75 19.065 145.164 19.5765 145.164H47.987C48.4985 145.164 48.9131 144.75 48.9131 144.238V144.101C48.9131 143.59 48.4985 143.175 47.987 143.175Z" fill="#C7A2FF"/>
    <path d="M34.6007 148.14H19.5765C19.065 148.14 18.6504 148.555 18.6504 149.066V149.203C18.6504 149.715 19.065 150.129 19.5765 150.129H34.6007C35.1122 150.129 35.5269 149.715 35.5269 149.203V149.066C35.5269 148.555 35.1122 148.14 34.6007 148.14Z" fill="#C7A2FF"/>
    <path d="M41.3731 150.129H38.526C38.3954 150.129 38.266 150.104 38.1453 150.054C38.0246 150.004 37.915 149.93 37.8226 149.838C37.7302 149.746 37.657 149.636 37.607 149.515C37.557 149.395 37.5313 149.265 37.5312 149.135C37.5312 149.004 37.557 148.875 37.607 148.754C37.657 148.633 37.7302 148.524 37.8226 148.431C37.915 148.339 38.0246 148.266 38.1453 148.216C38.266 148.166 38.3954 148.14 38.526 148.14H41.3731C41.6369 148.14 41.8899 148.245 42.0765 148.431C42.263 148.618 42.3678 148.871 42.3678 149.135C42.3678 149.265 42.3421 149.395 42.2921 149.515C42.2421 149.636 42.1688 149.746 42.0765 149.838C41.9841 149.93 41.8744 150.004 41.7537 150.054C41.633 150.104 41.5037 150.129 41.3731 150.129Z" fill="#C7A2FF"/>
    <path d="M20.1003 42.6792C28.2038 42.6792 34.7729 36.11 34.7729 28.0066C34.7729 19.9031 28.2038 13.334 20.1003 13.334C11.9969 13.334 5.42773 19.9031 5.42773 28.0066C5.42773 36.11 11.9969 42.6792 20.1003 42.6792Z" fill="url(#paint6_linear_837:69)"/>
    <path d="M20.0992 42.2846C17.2749 42.2863 14.5135 41.4504 12.1644 39.8825C9.81523 38.3146 7.98382 36.0853 6.90182 33.4765C5.81983 30.8676 5.53586 27.9965 6.08581 25.2263C6.63577 22.456 7.99496 19.9111 9.99145 17.9134C11.9879 15.9157 14.532 14.555 17.302 14.0034C20.0719 13.4518 22.9432 13.734 25.5527 14.8144C28.1621 15.8949 30.3926 17.7249 31.9618 20.0731C33.5311 22.4213 34.3687 25.1822 34.3687 28.0065C34.3642 31.7904 32.8596 35.4182 30.1848 38.0946C27.51 40.7711 23.8831 42.2778 20.0992 42.2846Z" fill="#5C489A"/>
    <path d="M25.1822 22.9641C25.1822 23.9699 24.884 24.9531 24.3252 25.7893C23.7664 26.6256 22.9722 27.2774 22.043 27.6623C21.1138 28.0472 20.0913 28.1479 19.1049 27.9517C18.1184 27.7555 17.2123 27.2711 16.5012 26.5599C15.79 25.8488 15.3056 24.9427 15.1094 23.9562C14.9132 22.9698 15.0139 21.9473 15.3988 21.0181C15.7837 20.0889 16.4355 19.2947 17.2718 18.7359C18.108 18.1771 19.0912 17.8789 20.097 17.8789C21.445 17.8812 22.7371 18.4177 23.6903 19.3708C24.6434 20.324 25.1799 21.6161 25.1822 22.9641Z" fill="white"/>
    <path d="M20.1002 41.3929C21.9358 41.3894 23.7509 41.0068 25.4317 40.269C27.1124 39.5311 28.6227 38.454 29.8676 37.1052C29.1557 35.082 27.8333 33.3297 26.083 32.0901C24.3326 30.8505 22.2407 30.1848 20.0959 30.1848C17.9511 30.1848 15.8592 30.8505 14.1089 32.0901C12.3586 33.3297 11.0362 35.082 10.3242 37.1052C11.5705 38.4547 13.0822 39.5321 14.7644 40.27C16.4467 41.0078 18.2633 41.3901 20.1002 41.3929Z" fill="white"/>
    <path d="M270.733 159.734H141.715C138.295 159.734 135.523 162.506 135.523 165.926V173.678C135.523 177.097 138.295 179.869 141.715 179.869H270.733C274.152 179.869 276.924 177.097 276.924 173.678V165.926C276.924 162.506 274.152 159.734 270.733 159.734Z" fill="white"/>
    <path d="M179.969 173.18C179.374 173.18 178.792 173.004 178.297 172.673C177.802 172.342 177.416 171.872 177.188 171.322C176.96 170.772 176.901 170.167 177.017 169.583C177.133 168.999 177.42 168.463 177.841 168.042C178.262 167.621 178.798 167.334 179.382 167.218C179.966 167.102 180.571 167.162 181.121 167.389C181.671 167.617 182.141 168.003 182.472 168.498C182.802 168.993 182.979 169.575 182.979 170.17C182.977 170.968 182.659 171.732 182.095 172.296C181.531 172.86 180.767 173.178 179.969 173.18Z" fill="#C7A2FF"/>
    <path d="M166.895 173.18C166.299 173.18 165.717 173.004 165.223 172.673C164.728 172.342 164.342 171.872 164.114 171.322C163.886 170.772 163.826 170.167 163.943 169.583C164.059 168.999 164.345 168.463 164.766 168.042C165.187 167.621 165.724 167.334 166.308 167.218C166.891 167.102 167.497 167.162 168.047 167.389C168.597 167.617 169.067 168.003 169.397 168.498C169.728 168.993 169.905 169.575 169.905 170.17C169.905 170.969 169.588 171.734 169.023 172.299C168.459 172.863 167.693 173.18 166.895 173.18Z" fill="#C7A2FF"/>
    <path d="M153.843 173.18C153.248 173.179 152.667 173.001 152.173 172.669C151.679 172.337 151.295 171.866 151.068 171.316C150.842 170.766 150.784 170.161 150.901 169.578C151.018 168.994 151.305 168.459 151.726 168.039C152.148 167.619 152.684 167.333 153.268 167.217C153.851 167.102 154.456 167.162 155.006 167.39C155.555 167.618 156.025 168.004 156.355 168.499C156.685 168.994 156.862 169.575 156.862 170.17C156.862 170.566 156.784 170.958 156.632 171.324C156.48 171.69 156.258 172.022 155.977 172.302C155.697 172.581 155.364 172.803 154.998 172.954C154.632 173.104 154.239 173.181 153.843 173.18Z" fill="#C7A2FF"/>
    <defs>
        <linearGradient id="paint0_linear_837:69" x1="115904" y1="54797.8" x2="124086" y2="6747.16" gradientUnits="userSpaceOnUse">
            <stop stop-color="#4D3B8B"/>
            <stop offset="0.36" stop-color="#4F3D8D"/>
            <stop offset="0.53" stop-color="#564395"/>
            <stop offset="0.67" stop-color="#634EA2"/>
            <stop offset="0.78" stop-color="#755EB4"/>
            <stop offset="0.88" stop-color="#8D72CC"/>
            <stop offset="0.97" stop-color="#A98AEA"/>
            <stop offset="1" stop-color="#B494F5"/>
        </linearGradient>
        <linearGradient id="paint1_linear_837:69" x1="289.47" y1="65.5927" x2="193.176" y2="135.817" gradientUnits="userSpaceOnUse">
            <stop offset="0.44" stop-color="#D6BBFF"/>
            <stop offset="0.5" stop-color="#C7A2FF"/>
            <stop offset="0.54" stop-color="#BF87FF"/>
        </linearGradient>
        <linearGradient id="paint2_linear_837:69" x1="47.5742" y1="112.98" x2="93.633" y2="112.98" gradientUnits="userSpaceOnUse">
            <stop stop-color="white"/>
            <stop offset="1" stop-color="#EDFDFC"/>
        </linearGradient>
        <linearGradient id="paint3_linear_837:69" x1="16429.6" y1="1081.26" x2="18903.8" y2="1081.26" gradientUnits="userSpaceOnUse">
            <stop stop-color="white"/>
            <stop offset="1" stop-color="#EDFDFC"/>
        </linearGradient>
        <linearGradient id="paint4_linear_837:69" x1="16426.5" y1="1133.2" x2="18900.3" y2="1133.2" gradientUnits="userSpaceOnUse">
            <stop stop-color="white"/>
            <stop offset="1" stop-color="#EDFDFC"/>
        </linearGradient>
        <linearGradient id="paint5_linear_837:69" x1="167.579" y1="64.9667" x2="157.254" y2="92.1337" gradientUnits="userSpaceOnUse">
            <stop offset="0.36" stop-color="#D6BBFF"/>
            <stop offset="0.5" stop-color="#C7A2FF"/>
            <stop offset="0.65" stop-color="#BF87FF"/>
        </linearGradient>
        <linearGradient id="paint6_linear_837:69" x1="26.9521" y1="14.4917" x2="14.4405" y2="39.1718" gradientUnits="userSpaceOnUse">
            <stop offset="0.36" stop-color="#6C5AA4"/>
            <stop offset="0.51" stop-color="#5C489A"/>
            <stop offset="0.65" stop-color="#533E94"/>
        </linearGradient>
    </defs>
</svg>
