<svg width="167" height="200" viewBox="0 0 167 200" fill="none" xmlns="http://www.w3.org/2000/svg">
<path d="M106.562 152.229H26.2472C25.8348 152.223 25.4302 152.116 25.0697 151.916C24.7091 151.715 24.4039 151.429 24.1813 151.082C23.9587 150.734 23.8258 150.337 23.7944 149.926C23.7629 149.515 23.834 149.102 24.0013 148.725L80.9882 20.9088C81.1778 20.4688 81.4908 20.0932 81.8894 19.8275C82.288 19.5618 82.7552 19.4173 83.2342 19.4115H163.541C163.954 19.4169 164.358 19.5246 164.719 19.7249C165.08 19.9251 165.385 20.2117 165.607 20.5589C165.83 20.9061 165.963 21.3031 165.994 21.7143C166.026 22.1256 165.955 22.5382 165.787 22.9152L108.83 150.747C108.636 151.187 108.319 151.561 107.916 151.824C107.513 152.087 107.043 152.228 106.562 152.229Z" fill="url(#paint0_linear_837:541)"/>
<path d="M130.9 62.0694L156.818 3.93697C156.961 3.61263 157.021 3.25775 156.993 2.90442C156.964 2.55108 156.848 2.21042 156.655 1.9132C156.462 1.61599 156.198 1.37159 155.886 1.20209C155.575 1.0326 155.226 0.943338 154.872 0.942383H82.1857C80.8641 0.942706 79.5709 1.32617 78.4628 2.04633C77.3546 2.7665 76.479 3.79248 75.942 5.00005L49.6345 64.0084C49.4915 64.3327 49.4315 64.6876 49.46 65.0409C49.4885 65.3943 49.6046 65.7349 49.7978 66.0321C49.991 66.3294 50.2552 66.5737 50.5666 66.7432C50.8779 66.9127 51.2265 67.002 51.581 67.003H123.331C124.934 66.9964 126.501 66.5274 127.843 65.6523C129.186 64.7771 130.247 63.533 130.9 62.0694Z" fill="white"/>
<path d="M121.488 101.905L147.406 43.7724C147.552 43.4482 147.613 43.0928 147.586 42.7387C147.558 42.3846 147.442 42.0431 147.248 41.7453C147.055 41.4475 146.79 41.2029 146.477 41.0339C146.165 40.8649 145.815 40.7769 145.46 40.7778H72.744C71.423 40.7766 70.13 41.1585 69.0218 41.8774C67.9135 42.5963 67.0376 43.6213 66.5002 44.828L40.1853 103.844C40.0423 104.168 39.9823 104.523 40.0108 104.876C40.0393 105.23 40.1554 105.57 40.3486 105.868C40.5418 106.165 40.806 106.409 41.1173 106.579C41.4287 106.748 41.7773 106.837 42.1318 106.838H113.89C115.498 106.839 117.071 106.373 118.42 105.497C119.768 104.621 120.834 103.374 121.488 101.905V101.905Z" stroke="white" stroke-width="1.11" stroke-miterlimit="10"/>
<path opacity="0.39" d="M88.5337 81.3694H91.8502L82.9263 98.7979H28.9863L31.1574 94.5456" stroke="#A1C2FF" stroke-width="0.55" stroke-miterlimit="10"/>
<path d="M94.823 33.1045C101.659 27.1789 103.591 18.2115 99.1388 13.0752C94.6864 7.93896 85.5355 8.57883 78.6997 14.5044C71.8638 20.43 69.9316 29.3974 74.3839 34.5337C78.8362 39.67 87.9871 39.0301 94.823 33.1045Z" fill="#E6F4FF"/>
<path d="M93.869 31.9996C99.8989 26.7727 101.604 18.8631 97.6766 14.3329C93.7497 9.80274 85.6782 10.3675 79.6484 15.5944C73.6186 20.8213 71.9139 28.7309 75.8408 33.2611C79.7677 37.7912 87.8392 37.2264 93.869 31.9996Z" fill="#94C3FF"/>
<path d="M86.9904 26.3066C86.9904 26.3066 80.4098 27.3922 77.6024 28.5002C76.9305 28.8397 76.3423 29.324 75.8802 29.9182C75.418 30.5124 75.0934 31.2017 74.9297 31.9365C76.4644 34.6091 79.3766 36.3086 83.1648 36.3086C88.0759 36.3086 93.1293 33.4712 96.3634 29.3536C94.6041 26.7858 86.9904 26.3066 86.9904 26.3066Z" fill="#4361C4"/>
<path d="M84.6763 23.5065L83.5383 28.2979C83.495 28.4254 83.4807 28.561 83.4964 28.6948C83.5122 28.8286 83.5576 28.9572 83.6293 29.0712C83.701 29.1853 83.7973 29.2819 83.911 29.354C84.0248 29.4261 84.1532 29.472 84.2869 29.4882C85.6165 29.7003 86.9771 29.4036 88.0976 28.6572C88.3167 28.5235 88.5022 28.3412 88.6398 28.1244C88.7774 27.9077 88.8634 27.6622 88.8911 27.407C89.0558 25.161 89.505 20.5868 89.505 20.5868L84.6763 23.5065Z" fill="#FF8D68"/>
<path d="M83.6835 18.4234C83.6835 18.4234 80.5916 24.682 81.198 26.359C81.8942 27.5119 88.108 24.9291 89.1261 23.2521C90.1443 21.5752 92.4801 18.5356 90.6234 16.6341C88.7668 14.7325 85.9893 15.3838 83.6835 18.4234Z" fill="#FF8D68"/>
<path d="M83.6836 18.4231C83.5407 17.7713 83.5898 17.092 83.825 16.4675C84.0601 15.843 84.4713 15.3001 85.0087 14.9045C86.8804 13.6018 89.2835 13.8639 90.1444 15.1665C90.4891 15.6459 90.8041 16.146 91.0878 16.6638C91.375 16.7401 91.6383 16.8879 91.853 17.0934C92.0677 17.2989 92.2268 17.5555 92.3155 17.8392C92.615 18.8124 90.6685 21.2905 89.8824 22.0092C89.0964 22.7279 89.2536 22.7578 89.2536 22.7578L88.9841 22.4134C89.0632 21.3997 89.2437 20.3965 89.5231 19.4188C89.6204 18.8274 88.9541 17.9814 87.7713 17.7868C86.5884 17.5921 86.1242 18.6777 83.6836 18.4231Z" fill="#7E3636"/>
<path d="M89.6735 21.2681C89.7831 21.0551 89.9598 20.8841 90.1762 20.7813C90.3926 20.6785 90.6368 20.6496 90.8713 20.6992C91.6199 20.9537 90.1226 23.3419 89.3066 23.1772C88.4906 23.0125 89.6735 21.2681 89.6735 21.2681Z" fill="#FF8D68"/>
<path d="M88.9247 26.5012C88.0117 27.5077 86.8935 28.3067 85.6456 28.8445C85.3611 28.9343 84.897 29.4958 84.897 29.4958L84.605 28.7472C84.301 28.5725 84.0604 28.3059 83.9177 27.9856C83.7751 27.6654 83.7379 27.3081 83.8114 26.9654L83.5868 27.1376L82.9879 28.6349C82.7803 29.2565 82.6422 29.8993 82.5762 30.5514L84.0735 29.7204C84.6043 29.8926 85.1735 29.9082 85.713 29.7653C85.713 29.7653 86.0199 30.8059 86.3044 30.8958C86.5889 30.9856 88.8423 28.852 89.1867 28.1183C89.4203 27.6557 89.5214 27.1375 89.4787 26.621L88.9247 26.5012Z" fill="white"/>
<path opacity="0.39" d="M136.627 29.2563H105.124C104.913 29.2682 104.703 29.2236 104.514 29.1271C104.326 29.0305 104.167 28.8856 104.053 28.7072C103.94 28.5287 103.876 28.3232 103.868 28.1119C103.86 27.9005 103.909 27.6908 104.009 27.5045L108.501 15.2566C108.693 14.769 109.019 14.3458 109.442 14.0358C109.865 13.7258 110.366 13.5417 110.889 13.5048H142.392C142.603 13.4918 142.814 13.5359 143.003 13.6324C143.192 13.7288 143.351 13.8741 143.464 14.0531C143.577 14.2321 143.64 14.4382 143.647 14.6499C143.653 14.8616 143.602 15.0711 143.5 15.2566L139.008 27.5045C138.817 27.9909 138.491 28.4135 138.07 28.7234C137.649 29.0333 137.149 29.218 136.627 29.2563Z" fill="#A1C2FF"/>
<path d="M138.446 19.0448H111.322L111.794 17.7346H138.925L138.446 19.0448Z" fill="#94C3FF"/>
<path d="M126.541 22.1066H110.205L110.684 20.7965H127.012L126.541 22.1066Z" fill="#94C3FF"/>
<path d="M113.425 24.884H109.195L109.674 23.5664H113.904L113.425 24.884Z" fill="#94C3FF"/>
<path d="M106.584 34.8934C106.346 35.4429 105.962 35.9167 105.473 36.2637C104.985 36.6107 104.412 36.8177 103.814 36.8624C102.729 36.8624 102.205 35.979 102.639 34.8934C102.876 34.3426 103.26 33.8672 103.748 33.5188C104.236 33.1704 104.811 32.9623 105.409 32.917C106.494 32.917 107.026 33.8004 106.584 34.8934Z" fill="#94C3FF"/>
<path d="M113.434 34.8934C113.195 35.4424 112.811 35.9158 112.323 36.2627C111.835 36.6096 111.261 36.8169 110.664 36.8624C109.571 36.8624 109.047 35.979 109.489 34.8934C109.725 34.3421 110.109 33.8663 110.597 33.5178C111.086 33.1693 111.66 32.9615 112.259 32.917C113.344 32.917 113.868 33.8004 113.434 34.8934Z" fill="#94C3FF"/>
<path d="M120.278 34.8934C120.04 35.4429 119.656 35.9167 119.167 36.2637C118.679 36.6107 118.106 36.8177 117.508 36.8624C116.423 36.8624 115.899 35.979 116.34 34.8934C116.576 34.3427 116.958 33.8671 117.445 33.5186C117.932 33.1701 118.506 32.962 119.103 32.917C120.196 32.917 120.72 33.8004 120.278 34.8934Z" fill="#94C3FF"/>
<path d="M127.105 34.8934C126.866 35.4424 126.482 35.9158 125.993 36.2627C125.505 36.6096 124.932 36.8169 124.335 36.8624C123.249 36.8624 122.718 35.979 123.16 34.8934C123.396 34.3421 123.78 33.8663 124.268 33.5178C124.757 33.1693 125.331 32.9615 125.93 32.917C127.038 32.917 127.562 33.8004 127.105 34.8934Z" fill="#FF8D02"/>
<path opacity="0.39" d="M133.968 34.8934C133.731 35.4428 133.349 35.9168 132.861 36.2639C132.374 36.6111 131.802 36.818 131.205 36.8624C130.112 36.8624 129.588 35.979 130.03 34.8934C130.265 34.3427 130.647 33.8671 131.134 33.5186C131.621 33.1701 132.195 32.962 132.792 32.917C133.885 32.917 134.409 33.8004 133.968 34.8934Z" fill="#A1C2FF"/>
<path opacity="0.39" d="M117.7 40.8827L109.008 49.9189L100.002 53.4899L110.214 60.9839L120.47 52.2247L117.7 40.8827Z" fill="#A1C2FF"/>
<path opacity="0.7" d="M115.641 46.1307L109.008 49.9189L103.4 53.46L111.007 58.9251L118.201 52.352L115.641 46.1307Z" fill="#A1C2FF"/>
<path d="M117.7 40.8827L109.008 49.9189L100.002 53.4899L110.184 61.0512L120.47 52.2247L117.7 40.8827Z" stroke="#4361C4" stroke-width="0.28" stroke-miterlimit="10"/>
<path d="M113.627 53.0632C113.552 53.2395 113.429 53.3919 113.274 53.504C113.118 53.6162 112.935 53.6837 112.744 53.6995C112.392 53.6995 112.227 53.4151 112.369 53.0632C112.445 52.8873 112.567 52.7355 112.723 52.6246C112.879 52.5137 113.062 52.4478 113.253 52.4343C113.627 52.4343 113.762 52.7188 113.627 53.0632Z" fill="#4361C4"/>
<path d="M105.071 46.8345L112.767 52.9285L99.0371 53.6247" stroke="#4361C4" stroke-width="0.28" stroke-miterlimit="10"/>
<path d="M109.615 63.1473L113.044 52.9282L122.095 52.0149" stroke="#4361C4" stroke-width="0.28" stroke-miterlimit="10"/>
<path d="M118.209 39.625L113.043 52.9285" stroke="#4361C4" stroke-width="0.28" stroke-miterlimit="10"/>
<path d="M105.775 46.7147C105.645 47.0111 105.437 47.2666 105.173 47.4539C104.91 47.6412 104.6 47.7532 104.277 47.7777C103.693 47.7777 103.416 47.2986 103.648 46.7147C103.778 46.4191 103.986 46.1647 104.25 45.9787C104.514 45.7927 104.824 45.6822 105.146 45.6591C105.73 45.6591 106.007 46.1307 105.775 46.7147Z" fill="#94C3FF"/>
<path d="M99.5471 53.6321C99.4197 53.93 99.2124 54.1869 98.9482 54.3745C98.684 54.5621 98.3731 54.6731 98.0499 54.6952C97.4659 54.6952 97.1814 54.2161 97.421 53.6321C97.5488 53.3351 97.7564 53.0793 98.0207 52.893C98.2849 52.7067 98.5956 52.5972 98.9183 52.5765C99.5022 52.5765 99.7867 53.0482 99.5471 53.6321Z" fill="#FF8D02"/>
<path d="M110.635 63.3195C110.507 63.6165 110.3 63.8724 110.035 64.0587C109.771 64.245 109.46 64.3545 109.138 64.3751C108.554 64.3751 108.269 63.9035 108.509 63.3195C108.636 63.0217 108.844 62.7647 109.108 62.5772C109.372 62.3896 109.683 62.2786 110.006 62.2565C110.568 62.2565 110.852 62.7356 110.635 63.3195Z" fill="#94C3FF"/>
<path d="M123.362 52.0299C123.232 52.3255 123.024 52.5799 122.761 52.7659C122.497 52.9519 122.187 53.0624 121.865 53.0855C121.281 53.0855 121.004 52.6139 121.236 52.0299C121.365 51.7335 121.573 51.4781 121.837 51.2919C122.101 51.1057 122.411 50.9958 122.734 50.9744C123.288 50.9744 123.565 51.4385 123.362 52.0299Z" fill="#94C3FF"/>
<path d="M119.384 39.2657C119.257 39.5636 119.05 39.8205 118.785 40.0081C118.521 40.1956 118.21 40.3066 117.887 40.3288C117.303 40.3288 117.019 39.8496 117.251 39.2657C117.381 38.9702 117.589 38.7157 117.853 38.5297C118.116 38.3437 118.426 38.2332 118.748 38.2101C119.34 38.2101 119.616 38.7117 119.384 39.2657Z" fill="#FF8D02"/>
<path d="M95.3673 48.0921H69L71.0138 43.1061H97.3812L95.3673 48.0921Z" fill="#4361C4"/>
<path opacity="0.39" d="M79.4882 59.3219H64.4629L65.3239 57.1808H80.3492L79.4882 59.3219Z" fill="#A1C2FF"/>
<path opacity="0.39" d="M77.2375 55.047H66.1875L68.2088 50.0535H79.2514L77.2375 55.047Z" fill="#A1C2FF"/>
<path d="M135.803 108.268L148.709 79.3258C148.784 79.1638 148.816 78.9856 148.803 78.8077C148.79 78.6299 148.733 78.4582 148.636 78.3087C148.538 78.1592 148.405 78.0367 148.248 77.9527C148.09 77.8688 147.914 77.826 147.736 77.8285H111.531C110.874 77.8279 110.231 78.0178 109.68 78.3752C109.128 78.7326 108.692 79.2422 108.425 79.8423L95.3232 109.227C95.2507 109.389 95.2199 109.567 95.2337 109.744C95.2475 109.921 95.3055 110.091 95.4022 110.24C95.499 110.389 95.6316 110.511 95.7878 110.596C95.944 110.68 96.1188 110.724 96.2964 110.724H132.022C132.822 110.724 133.605 110.492 134.276 110.056C134.947 109.62 135.477 108.999 135.803 108.268Z" fill="white"/>
<path opacity="0.39" d="M126.134 101.678C132.198 96.7156 134.423 89.4023 131.102 85.3431C127.78 81.2839 120.171 82.0159 114.107 86.9781C108.042 91.9403 105.817 99.2536 109.139 103.313C112.46 107.372 120.069 106.64 126.134 101.678Z" fill="#A1C2FF"/>
<path d="M123.359 94.9276C123.359 94.9276 129.228 97.8473 129.85 100.52C130.471 103.193 127.866 110.252 127.866 110.252H104.561C104.561 110.252 108.386 102.017 111.358 100.041C114.33 98.0645 120.072 96.6121 120.072 96.6121L123.359 94.9276Z" fill="#4385FF"/>
<path d="M120.978 93.0335L119.152 96.9864C118.92 97.4805 119.054 97.9372 119.481 98.0645C120.542 98.3562 121.675 98.2247 122.64 97.6976C123.047 97.4972 123.359 97.145 123.509 96.7169C124.07 94.8378 125.328 90.9897 125.328 90.9897L120.978 93.0335Z" fill="#94C3FF"/>
<path d="M121.171 88.6391C121.171 88.6391 117.518 93.6625 117.66 95.1373C117.982 96.1704 123.365 94.5459 124.495 93.2133C125.626 91.8807 128.051 89.5225 126.996 87.7556C125.94 85.9888 123.605 86.2733 121.171 88.6391Z" fill="#94C3FF"/>
<path d="M121.328 87.9053C121.28 87.9678 121.235 88.0327 121.194 88.1C120.984 88.4593 120.67 89.178 121.545 89.2229L122.721 89.2828C122.721 89.2828 124.6 88.2197 125.334 89.3502C125.888 90.4806 124.098 91.1769 124.248 91.7384C124.398 92.2999 124.315 92.1801 124.068 92.487C123.771 93.013 123.315 93.432 122.766 93.6849C121.92 94.0592 121.268 93.9993 120.445 94.4335C119.621 94.8677 118.079 94.3661 117.914 93.9918C117.54 93.6774 117.323 94.3661 117.084 94.8078C116.844 95.2495 116.095 95.3768 116.814 95.9458C117.533 96.5148 118.057 96.7618 119.307 96.0057C120.069 95.4829 120.939 95.1399 121.852 95.0025C122.934 94.7843 123.892 94.1635 124.533 93.2656C125.012 92.517 125.161 91.4764 125.566 91.0945C125.97 90.7127 126.202 91.0945 126.022 91.5362C125.843 91.9779 127.557 91.1619 127.969 89.8368C128.381 88.5117 127.654 88.5791 127.587 87.823C127.52 87.0668 128.373 86.1909 127.452 85.4947C126.531 84.7984 125.678 85.6818 125.356 85.2401C125.034 84.7984 123.604 84.7385 122.466 85.6818C121.788 86.2606 121.359 87.0784 121.268 87.9652" fill="#4361C4"/>
<path d="M125.358 91.2145C125.358 91.2145 125.853 90.5781 126.407 90.8401C126.961 91.1022 125.291 93.0112 124.692 92.7941C124.093 92.577 125.358 91.2145 125.358 91.2145Z" fill="#94C3FF"/>
<path d="M117.527 94.194C117.527 94.194 118.066 92.2475 119.421 91.993C120.776 91.7384 121.398 92.562 121.308 93.2507C121.288 93.4585 121.325 93.6679 121.414 93.8564C121.504 94.045 121.643 94.2056 121.817 94.3213C121.817 94.3213 118.388 95.9608 117.527 94.194Z" fill="#4361C4"/>
<path d="M119.572 147.34L132.479 118.398C132.551 118.235 132.582 118.058 132.568 117.881C132.554 117.704 132.496 117.533 132.4 117.384C132.303 117.235 132.17 117.113 132.014 117.028C131.858 116.944 131.683 116.9 131.505 116.9H95.3009C94.6436 116.899 94 117.088 93.4484 117.446C92.8968 117.803 92.461 118.313 92.194 118.914L79.0927 148.299C79.0204 148.46 78.9896 148.637 79.0031 148.814C79.0165 148.99 79.0738 149.16 79.1697 149.309C79.2656 149.458 79.3972 149.58 79.5524 149.665C79.7076 149.75 79.8815 149.795 80.0585 149.796H115.784C116.585 149.796 117.369 149.564 118.041 149.129C118.714 148.693 119.245 148.072 119.572 147.34Z" fill="white"/>
<path opacity="0.39" d="M112.276 140.132C118.507 135.035 120.792 127.522 117.38 123.352C113.969 119.183 106.152 119.935 99.9219 125.033C93.6914 130.131 91.4063 137.643 94.8179 141.813C98.2295 145.983 106.046 145.23 112.276 140.132Z" fill="#A1C2FF"/>
<path d="M109.408 129.193C109.408 129.193 111.189 128.347 111.429 129.373C111.487 129.688 111.467 130.013 111.372 130.32C111.277 130.626 111.109 130.905 110.882 131.132C110.882 131.132 112.484 130.69 112.911 132.06C113.338 133.43 112.05 134.089 112.589 134.576C113.128 135.062 114.229 136.11 112.679 137.847C111.129 139.584 108.868 141.59 106.241 140.288C103.613 138.985 104.451 132.764 104.451 132.764L105.095 130.937L109.408 129.193Z" fill="#4361C4"/>
<path d="M107.701 123.952C107.701 123.952 103.741 124.289 102.461 127.059C101.181 129.829 103.696 130.054 103.696 130.054L107.701 123.952Z" fill="#4361C4"/>
<path d="M81.9771 142.773L82.2317 143.23C84.0151 145.355 85.9411 147.356 87.9962 149.219H93.6485C96.1579 146.87 98.4947 144.343 100.641 141.658C100.641 141.388 104.182 137.563 103.403 135.998C102.625 134.434 101.622 134.688 101.622 134.688C100.674 134.921 99.8236 135.445 99.1885 136.185C97.9008 137.525 91.5523 147.37 91.5523 147.37C90.9524 146.366 90.1674 145.484 89.239 144.772C87.7417 143.657 83.3396 141.291 83.3396 141.291C83.3396 141.291 83.6092 139.39 83.5867 139.045C83.5642 138.701 82.4637 137.024 82.1343 137.383C81.8049 137.743 82.576 139.3 82.576 139.3C82.576 139.3 81.7226 142.339 81.9771 142.773Z" fill="#94C3FF"/>
<path d="M96.1177 146.472C96.1177 146.472 96.2824 147.677 96.6118 149.227H107.842C108.096 146.696 108.59 141.606 108.935 140.393C109.354 138.768 108.979 135.309 109.114 134.359C109.249 133.408 106.539 133.76 106.539 133.76L102.998 133.82L102.429 134.067C101.634 134.411 100.955 134.978 100.475 135.699C100.041 136.372 99.3968 137.346 98.5284 138.626C97.1284 139.681 94.0365 141.523 94.2835 143.866C94.5306 146.21 96.1177 146.472 96.1177 146.472Z" fill="#4385FF"/>
<path d="M104.172 131.671C102.2 134.255 100.834 137.248 100.174 140.43C101.192 140.116 104.306 137.263 106.163 135.519C106.464 135.319 106.695 135.029 106.821 134.69C106.947 134.351 106.963 133.981 106.867 133.632C106.951 132.742 107.184 131.871 107.555 131.057C107.825 129.432 104.172 131.671 104.172 131.671Z" fill="#94C3FF"/>
<path d="M114.021 147.542C114.021 147.542 114.508 148.216 115.317 149.227H120.37C119.404 147.947 118.633 146.914 118.394 146.547C117.577 145.304 111.835 132.787 108.339 134.344C107.688 134.636 105.345 136.59 106.31 138.791C107.276 140.992 114.021 147.542 114.021 147.542Z" fill="#94C3FF"/>
<path d="M104.032 126.55C103.108 127.705 102.282 128.935 101.561 130.226C100.917 131.476 101.359 132.622 102.557 132.749C104.286 132.936 106.922 132.51 107.797 131.521C109.085 130.024 111.84 127.449 110.717 125.427C109.594 123.406 107.161 123.676 104.496 126.071C104.326 126.215 104.17 126.376 104.032 126.55Z" fill="#94C3FF"/>
<path d="M105.197 125.263C105.197 125.263 103.461 128.1 108.387 129.904L109.001 130.181C109.001 130.181 111.149 128.474 111.179 126.67C111.249 126.056 111.105 125.437 110.771 124.917C110.436 124.397 109.933 124.009 109.345 123.818C108.387 123.421 105.856 124.589 105.197 125.263Z" fill="#4361C4"/>
<path d="M108.258 130.316C108.258 130.316 109.501 129.455 109.486 130.249C109.471 131.042 107.726 131.888 107.539 131.559C107.352 131.229 108.258 130.316 108.258 130.316Z" fill="#94C3FF"/>
<path d="M80.2295 123.361H40.3491C39.1213 123.361 38.5299 122.365 39.024 121.115L41.8614 114.093C42.1245 113.469 42.5542 112.929 43.1035 112.533C43.6528 112.137 44.3005 111.9 44.9757 111.847H84.8487C86.0764 111.847 86.6679 112.835 86.1738 114.093L83.3364 121.115C83.0739 121.738 82.6453 122.277 82.0974 122.673C81.5495 123.069 80.9034 123.307 80.2295 123.361Z" fill="#4385FF"/>
<path d="M79.9166 118.188H45.5762L46.2499 116.526H80.5904L79.9166 118.188Z" fill="white"/>
<path d="M47.9815 7.81499H46.6264C46.3944 7.81499 46.2746 7.62034 46.3719 7.38077L46.9184 6.03322C46.9727 5.91415 47.0573 5.8114 47.1637 5.73521C47.2701 5.65902 47.3946 5.61206 47.5248 5.599H48.8724C49.1119 5.599 49.2242 5.79365 49.1269 6.03322L48.5879 7.38077C48.5336 7.49983 48.449 7.60259 48.3426 7.67877C48.2362 7.75496 48.1117 7.80192 47.9815 7.81499Z" fill="#F9FBFC"/>
<path d="M61.8057 7.81499H60.4731C60.2336 7.81499 60.1213 7.62034 60.2186 7.38077L60.7576 6.03322C60.8126 5.91313 60.8983 5.8097 61.0061 5.73344C61.1139 5.65718 61.24 5.6108 61.3715 5.599H62.7191C62.9586 5.599 63.0709 5.79365 62.9736 6.03322L62.4271 7.38077C62.3715 7.5019 62.2847 7.60601 62.1754 7.68234C62.0662 7.75867 61.9386 7.80446 61.8057 7.81499Z" fill="#BFD9FF"/>
<path d="M45.4027 14.1785H44.0552C43.8156 14.1785 43.7033 13.9839 43.8006 13.7443L44.3396 12.3967C44.394 12.2777 44.4785 12.1749 44.5849 12.0987C44.6913 12.0225 44.8158 11.9756 44.9461 11.9625H46.3011C46.5407 11.9625 46.653 12.1572 46.5556 12.3967L46.0091 13.7443C45.9548 13.8634 45.8702 13.9661 45.7638 14.0423C45.6574 14.1185 45.5329 14.1654 45.4027 14.1785Z" fill="#BFD9FF"/>
<path d="M52.3201 14.1785H50.9725C50.733 14.1785 50.6207 13.9839 50.7105 13.7443L51.257 12.3967C51.3113 12.2777 51.3959 12.1749 51.5023 12.0987C51.6087 12.0225 51.7332 11.9756 51.8634 11.9625H53.211C53.4506 11.9625 53.5703 12.1572 53.473 12.3967L52.9265 13.7443C52.8722 13.8634 52.7876 13.9661 52.6812 14.0423C52.5748 14.1185 52.4503 14.1654 52.3201 14.1785Z" fill="#F9FBFC"/>
<path d="M59.2412 14.1785H57.8936C57.654 14.1785 57.5342 13.9839 57.6316 13.7443L58.1781 12.3967C58.2324 12.2777 58.3169 12.1749 58.4233 12.0987C58.5297 12.0225 58.6543 11.9756 58.7845 11.9625H60.132C60.3716 11.9625 60.4914 12.1572 60.3941 12.3967L59.8476 13.7443C59.7932 13.8634 59.7087 13.9661 59.6023 14.0423C59.4959 14.1185 59.3714 14.1654 59.2412 14.1785Z" fill="#F9FBFC"/>
<path d="M64.7704 14.1785H63.4229C63.1833 14.1785 63.0635 13.9839 63.1609 13.7443L63.7074 12.3967C63.7617 12.2777 63.8463 12.1749 63.9527 12.0987C64.0591 12.0225 64.1836 11.9756 64.3138 11.9625H65.6613C65.9009 11.9625 66.0207 12.1572 65.9234 12.3967L65.3768 13.7443C65.3225 13.8634 65.238 13.9661 65.1316 14.0423C65.0252 14.1185 64.9007 14.1654 64.7704 14.1785Z" fill="#F9FBFC"/>
<path d="M42.8369 20.542H41.4893C41.2497 20.542 41.1299 20.3474 41.2273 20.1078L41.7738 18.7603C41.8281 18.6412 41.9126 18.5385 42.019 18.4623C42.1254 18.3861 42.25 18.3391 42.3802 18.326H43.7277C43.9673 18.326 44.0871 18.5207 43.9898 18.7603L43.4433 20.1078C43.3889 20.2269 43.3044 20.3296 43.198 20.4058C43.0916 20.482 42.9671 20.529 42.8369 20.542Z" fill="#F9FBFC"/>
<path d="M37.3037 20.542H35.9561C35.7165 20.542 35.5967 20.3474 35.6941 20.1078L36.2406 18.7603C36.2949 18.6412 36.3795 18.5385 36.4859 18.4623C36.5923 18.3861 36.7168 18.3391 36.847 18.326H38.1945C38.4341 18.326 38.5464 18.5207 38.4566 18.7603L37.9101 20.1078C37.8557 20.2269 37.7712 20.3296 37.6648 20.4058C37.5584 20.482 37.4339 20.529 37.3037 20.542Z" fill="#F9FBFC"/>
<path d="M49.753 20.542H48.3979C48.1658 20.542 48.0461 20.3474 48.1434 20.1078L48.6899 18.7603C48.7442 18.6412 48.8288 18.5385 48.9352 18.4623C49.0416 18.3861 49.1661 18.3391 49.2963 18.326H50.6439C50.8834 18.326 50.9957 18.5207 50.8984 18.7603L50.3594 20.1078C50.3051 20.2269 50.2205 20.3296 50.1141 20.4058C50.0077 20.482 49.8832 20.529 49.753 20.542Z" fill="#F9FBFC"/>
<path d="M56.6625 20.542H55.3149C55.0754 20.542 54.9631 20.3474 55.0604 20.1078L55.6069 18.7603C55.6612 18.6412 55.7458 18.5385 55.8522 18.4623C55.9586 18.3861 56.0831 18.3391 56.2133 18.326H57.5609C57.8004 18.326 57.9127 18.5207 57.8154 18.7603L57.2764 20.1078C57.2215 20.2279 57.1357 20.3313 57.0279 20.4076C56.9201 20.4839 56.794 20.5302 56.6625 20.542Z" fill="#BFD9FF"/>
<path d="M40.2621 26.9053H38.9146C38.675 26.9053 38.5627 26.7107 38.66 26.4711L39.2065 25.1235C39.2608 25.0045 39.3454 24.9017 39.4518 24.8255C39.5582 24.7494 39.6827 24.7024 39.8129 24.6893H41.1605C41.4001 24.6893 41.5124 24.884 41.415 25.1235L40.8685 26.4711C40.8142 26.5902 40.7296 26.6929 40.6232 26.7691C40.5168 26.8453 40.3923 26.8923 40.2621 26.9053Z" fill="#F9FBFC"/>
<path d="M48.4971 132.727H46.6255C46.2886 132.727 46.1239 132.45 46.2661 132.113L47.0147 130.211C47.0874 130.041 47.2055 129.895 47.3561 129.788C47.5067 129.681 47.6839 129.618 47.8682 129.605H49.7698C50.1067 129.605 50.2714 129.874 50.1366 130.211L49.388 132.113C49.3129 132.289 49.1893 132.44 49.0316 132.549C48.8738 132.658 48.6885 132.719 48.4971 132.727Z" fill="#4385FF"/>
<path d="M68.02 132.727H66.1184C65.7815 132.727 65.6243 132.45 65.7591 132.113L66.5077 130.211C66.583 130.042 66.7028 129.896 66.8544 129.789C67.006 129.682 67.1837 129.619 67.3686 129.605H69.2702C69.6071 129.605 69.7643 129.874 69.6296 130.211L68.8809 132.113C68.8081 132.285 68.6891 132.433 68.5371 132.541C68.3852 132.65 68.2062 132.714 68.02 132.727Z" fill="#4385FF"/>
<path d="M44.9001 141.696H42.9985C42.6616 141.696 42.4969 141.419 42.6391 141.082L43.3878 139.18C43.4604 139.01 43.5786 138.864 43.7291 138.757C43.8797 138.65 44.057 138.586 44.2413 138.574H46.1428C46.4797 138.574 46.6444 138.843 46.5097 139.18L45.761 141.082C45.6882 141.254 45.5692 141.402 45.4172 141.51C45.2652 141.619 45.0863 141.683 44.9001 141.696Z" fill="#BFD9FF"/>
<path d="M54.6489 141.696H52.7473C52.4104 141.696 52.2532 141.419 52.388 141.082L53.1366 139.18C53.2112 139.01 53.3308 138.864 53.4826 138.757C53.6343 138.65 53.8124 138.587 53.9976 138.574H55.8916C56.2285 138.574 56.3932 138.843 56.2585 139.18L55.5098 141.082C55.437 141.254 55.318 141.402 55.166 141.51C55.0141 141.619 54.8351 141.683 54.6489 141.696Z" fill="#FF8D02"/>
<path d="M64.3969 141.696H62.4954C62.1585 141.696 62.0013 141.419 62.136 141.082L62.8847 139.18C62.9599 139.011 63.0798 138.865 63.2314 138.758C63.383 138.651 63.5607 138.588 63.7456 138.574H65.6472C65.9841 138.574 66.1413 138.843 66.0065 139.18L65.2579 141.082C65.1851 141.254 65.066 141.402 64.9141 141.51C64.7621 141.619 64.5831 141.683 64.3969 141.696Z" fill="#BFD9FF"/>
<path d="M72.1969 141.696H70.2954C69.9585 141.696 69.7938 141.419 69.936 141.082L70.6847 139.18C70.7573 139.01 70.8754 138.864 71.026 138.757C71.1766 138.65 71.3538 138.586 71.5381 138.574H73.4397C73.7766 138.574 73.9413 138.843 73.8065 139.18L73.0579 141.082C72.985 141.254 72.8661 141.402 72.7141 141.51C72.5621 141.619 72.3831 141.683 72.1969 141.696Z" fill="#BFD9FF"/>
<path d="M41.279 150.664H39.3774C39.0405 150.664 38.8758 150.387 39.0181 150.05L39.7667 148.149C39.8393 147.979 39.9575 147.833 40.1081 147.726C40.2586 147.619 40.4359 147.555 40.6202 147.542H42.5067C42.8436 147.542 43.0083 147.812 42.8736 148.149L42.1249 150.05C42.0533 150.22 41.9366 150.367 41.7875 150.475C41.6384 150.583 41.4625 150.649 41.279 150.664Z" fill="#BFD9FF"/>
<path d="M33.477 150.664H31.5754C31.2385 150.664 31.0813 150.387 31.2161 150.05L31.9647 148.149C32.04 147.979 32.1598 147.834 32.3114 147.727C32.463 147.62 32.6408 147.556 32.8257 147.542H34.7272C35.0641 147.542 35.2213 147.812 35.0866 148.149L34.3379 150.05C34.263 150.221 34.1435 150.368 33.992 150.476C33.8404 150.584 33.6625 150.649 33.477 150.664Z" fill="#BFD9FF"/>
<path d="M51.029 150.664H49.1274C48.7905 150.664 48.6258 150.387 48.7681 150.05L49.5167 148.149C49.5913 147.979 49.711 147.833 49.8627 147.726C50.0144 147.619 50.1925 147.555 50.3777 147.542H52.2717C52.6086 147.542 52.7733 147.812 52.6386 148.149L51.8899 150.05C51.8171 150.222 51.6981 150.371 51.5461 150.479C51.3942 150.587 51.2152 150.651 51.029 150.664Z" fill="#BFD9FF"/>
<path d="M60.7739 150.664H58.8723C58.5354 150.664 58.3782 150.387 58.513 150.05L59.2616 148.149C59.3369 147.979 59.4567 147.834 59.6083 147.727C59.7599 147.62 59.9376 147.556 60.1226 147.542H62.0241C62.3535 147.542 62.5182 147.812 62.3835 148.149L61.6348 150.05C61.562 150.222 61.443 150.371 61.291 150.479C61.1391 150.587 60.9601 150.651 60.7739 150.664Z" fill="#FF8D02"/>
<path d="M37.6566 159.633H35.77C35.4331 159.633 35.2684 159.356 35.4106 159.019L36.1593 157.118C36.2319 156.948 36.35 156.801 36.5006 156.694C36.6512 156.587 36.8284 156.524 37.0127 156.511H38.9143C39.2512 156.511 39.4159 156.781 39.2811 157.118L38.5325 159.019C38.4585 159.193 38.3373 159.343 38.1824 159.452C38.0276 159.56 37.8454 159.623 37.6566 159.633Z" fill="#FF8D02"/>
<path opacity="0.39" d="M81.6838 94.9574H27.7363L36.6602 77.5289H90.6077L81.6838 94.9574Z" fill="#A1C2FF"/>
<path d="M77.155 90.8411C80.4772 87.907 81.3154 83.4282 79.0273 80.8374C76.7392 78.2465 72.1911 78.5248 68.8689 81.4589C65.5467 84.3929 64.7084 88.8718 66.9966 91.4626C69.2847 94.0534 73.8328 93.7751 77.155 90.8411Z" fill="#73A5FF"/>
<path d="M71.1872 89.7769C71.0815 89.7798 70.9765 89.7584 70.8805 89.7142C70.7844 89.6701 70.6998 89.6044 70.6332 89.5223L68.8065 87.0817C68.6906 86.8755 68.6579 86.6328 68.7149 86.4032C68.7719 86.1736 68.9145 85.9745 69.1134 85.8465C69.2763 85.6837 69.4971 85.5923 69.7273 85.5923C69.9575 85.5923 70.1783 85.6837 70.3412 85.8465L71.7037 87.6732L76.5924 83.7577C76.6726 83.6751 76.7686 83.6094 76.8747 83.5646C76.9808 83.5197 77.0948 83.4966 77.21 83.4966C77.3252 83.4966 77.4392 83.5197 77.5453 83.5646C77.6514 83.6094 77.7474 83.6751 77.8277 83.7577C77.9413 83.9633 77.9728 84.2042 77.9158 84.432C77.8589 84.6599 77.7177 84.8576 77.5207 84.9855L71.8609 89.5223C71.6693 89.6769 71.4332 89.7661 71.1872 89.7769Z" fill="white"/>
<path d="M30.5287 44.364C30.4838 44.7955 30.315 45.2047 30.0426 45.5423C29.7702 45.8799 29.4058 46.1314 28.9935 46.2664C28.5813 46.4013 28.1388 46.414 27.7194 46.3029C27.3001 46.1918 26.922 45.9616 26.6306 45.6402C26.3393 45.3187 26.1473 44.9198 26.0778 44.4916C26.0083 44.0634 26.0644 43.6243 26.2391 43.2272C26.4138 42.8302 26.6998 42.4922 27.0624 42.2542C27.4251 42.0162 27.8489 41.8883 28.2827 41.886C28.9091 41.917 29.4975 42.1954 29.9186 42.6601C30.3398 43.1248 30.5592 43.7376 30.5287 44.364V44.364Z" stroke="#505E83" stroke-width="0.52" stroke-miterlimit="10"/>
<path d="M7.04329 57.7571C5.79652 57.937 4.59987 58.3707 3.52727 59.0313C2.45467 59.6918 1.52886 60.5653 0.807052 61.5976C-1.85813 65.1986 2.0049 78.4122 13.4817 83.7501C20.9681 86.6848 21.4922 80.0069 19.6205 75.3428C17.7489 70.6787 12.3512 58.8501 7.04329 57.7571Z" fill="white"/>
<path d="M8.14411 189.249C8.14411 189.249 8.89276 187.587 11.7975 188.029C14.7023 188.471 15.0092 189.025 15.3386 190.47C15.668 191.915 16.6712 193.464 17.3375 193.794C18.0038 194.123 20.4369 195.785 22.4358 196.115C24.4347 196.444 24.6817 197.672 24.2026 198.226C23.7234 198.78 16.2295 199.221 14.5675 198.974C14.5675 198.974 8.9152 198.862 7.59009 198.42C6.26499 197.979 8.06924 189.803 8.14411 189.249Z" fill="#16142A"/>
<path d="M22.5778 189.249C22.5778 189.249 23.3264 187.587 26.2312 188.029C29.1359 188.471 29.4428 189.025 29.7797 190.47C30.1166 191.915 31.1048 193.464 31.7711 193.794C32.4374 194.123 34.8705 195.785 36.8694 196.115C38.8683 196.444 39.1153 197.672 38.6362 198.226C38.1571 198.78 30.6631 199.221 29.0011 198.974C29.0011 198.974 23.3489 198.862 22.0238 198.42C20.6987 197.979 22.4655 189.803 22.5778 189.249Z" fill="#16142A"/>
<path d="M5.47319 148.014C5.26352 146.677 5.55701 145.311 6.29687 144.178C7.03672 143.045 8.17036 142.228 9.47846 141.883C14.3222 140.348 15.243 142.586 16.7104 146.771C18.1777 150.956 15.4676 190.47 15.4676 190.47C15.4676 190.47 9.56079 190.604 8.13088 189.758C8.13088 189.758 4.18551 163.556 4.48497 157.155C4.78443 150.754 5.47319 148.014 5.47319 148.014Z" fill="#2B3554"/>
<path d="M28.1621 46.0482C28.1621 46.0482 29.2926 47.5455 29.2926 48.384C29.2926 49.2225 27.7578 49.1925 27.7578 49.1925L28.1621 46.0482Z" fill="#FF7759"/>
<path d="M22.6987 30.424C22.6987 30.424 25.9777 31.2625 27.8344 36.2934C29.691 41.3243 28.4557 52.015 27.2205 53.2802C25.9852 54.5454 22.2195 54.0289 17.0014 52.3369C11.4989 50.5177 9.63476 44.7906 8.64654 41.0174C6.75995 33.778 13.0561 26.3364 22.6987 30.424Z" fill="#FF8D68"/>
<path d="M10.9414 58.1763L13.5991 48.646C13.5991 48.646 18.922 47.0963 22.2385 50.6449L23.3465 52.1946V58.4009C19.2301 59.052 15.0315 58.976 10.9414 58.1763Z" fill="#FF8D68"/>
<path d="M3.52646 109.504C2.33753 117.769 2.33753 126.161 3.52646 134.426C5.51786 147.722 9.51563 149.055 13.1615 149.055C16.8075 149.055 17.8032 138.416 18.4769 133.79C19.1507 129.163 21.8009 113.187 16.8149 109.534C11.829 105.88 6.18416 105.513 3.52646 109.504Z" fill="#2B3554"/>
<path d="M17.4765 125.121C17.4765 125.121 13.4862 114.49 20.4711 109.833C27.456 105.177 32.7639 105.843 34.4259 113.487C36.0879 121.13 36.4248 147.393 34.0965 152.708C31.7682 158.024 23.4582 149.714 17.4765 125.121Z" fill="#2B3F63"/>
<path d="M9.56445 58.1764C9.56445 58.1764 10.3131 55.5711 10.9719 55.3465C11.6307 55.1219 19.8359 54.2385 24.2679 56.8962C26.2593 58.4534 26.0422 59.5539 26.0422 59.5539C26.0422 59.5539 12.7836 56.9936 9.56445 58.1764Z" fill="white"/>
<path d="M33.898 109.504C33.898 109.504 34.5643 111.098 34.1675 111.637C33.636 112.169 18.5582 117.507 2.67943 113.636C2.40992 113.636 3.07621 110.971 3.07621 110.971L33.898 109.504Z" fill="#6060E7"/>
<path d="M2.51946 85.4572C2.07776 82.3578 0.752667 67.0704 1.19437 64.8544C1.60612 62.7807 3.37293 58.9701 7.0413 57.7573C7.3035 57.6682 7.57105 57.5957 7.84235 57.5402C7.84235 57.5402 21.58 56.6568 31.3274 60.8641C31.3274 60.8641 34.6664 63.6341 35.2803 77.7611C35.2803 77.7611 35.1006 80.1418 34.5316 85.2476C33.9626 90.3533 34.8011 94.0517 35.6022 99.12C36.4032 104.188 38.0053 109.264 32.1359 110.35C26.5286 111.42 11.0465 114.093 1.97294 111.42C0.108814 110.088 2.774 103.934 2.774 99.1425C2.774 94.3511 2.51946 85.4572 2.51946 85.4572Z" fill="#8182EE"/>
<path d="M23.7902 148.718C23.7273 147.367 24.168 146.041 25.027 144.997C25.8859 143.953 27.1019 143.264 28.4393 143.065C33.4253 142.07 34.0916 144.398 35.0873 148.718C36.083 153.037 30.1762 190.724 30.1762 190.724C30.1762 190.724 23.648 191.099 22.3229 190.103C22.3229 190.103 20.8256 164.005 21.7913 157.694C22.7571 151.383 23.7902 148.718 23.7902 148.718Z" fill="#2B3F63"/>
<path d="M16.1543 122.627C16.1543 122.627 20.8034 137.6 24.2921 144.9" stroke="#2A2E59" stroke-width="0.67" stroke-miterlimit="10"/>
<path d="M25.627 147.887C26.4942 147.415 27.4658 147.168 28.4531 147.168C29.4404 147.168 30.412 147.415 31.2792 147.887" stroke="#2A2E59" stroke-width="0.67" stroke-miterlimit="10"/>
<path d="M25.125 149.713C25.125 149.713 27.4533 148.388 31.4436 151.211" stroke="#2A2E59" stroke-width="0.67" stroke-miterlimit="10"/>
<path d="M7.67969 145.895C7.67969 145.895 9.50639 144.233 13.6689 146.06" stroke="#2A2E59" stroke-width="0.67" stroke-miterlimit="10"/>
<path d="M9.00586 147.557C9.84274 147.184 10.7662 147.049 11.6748 147.167C12.5834 147.284 13.4421 147.65 14.1566 148.224" stroke="#2A2E59" stroke-width="0.67" stroke-miterlimit="10"/>
<path d="M15.15 150.215L14.1543 184.114" stroke="#2A2E59" stroke-width="0.67" stroke-miterlimit="10"/>
<path d="M28.8906 121.812C28.8906 121.812 32.6339 124.057 34.2135 120.486" stroke="#2A2E59" stroke-width="0.67" stroke-miterlimit="10"/>
<path d="M32.6621 122.238C32.6621 122.238 34.4289 135.976 33.9872 145.064" stroke="#2A2E59" stroke-width="0.67" stroke-miterlimit="10"/>
<path d="M21.2227 51.0865C21.2227 51.0865 22.3831 54.0811 26.291 53.5795" stroke="#E66657" stroke-width="0.67" stroke-miterlimit="10"/>
<path d="M26.2295 32.6251C26.2295 32.6251 28.1236 35.2303 28.2434 36.7651C28.3631 38.2998 25.8776 39.842 25.5183 40.7853C25.1589 41.7286 25.9824 42.9264 25.6231 43.5179C25.369 44.0866 25.2121 44.694 25.1589 45.3146L25.2787 46.6547C25.3025 46.8888 25.2394 47.1234 25.1013 47.314C24.9632 47.5045 24.7599 47.6376 24.53 47.6878L24.2456 47.7477C24.0487 47.7866 23.8445 47.7555 23.6682 47.6598C23.4919 47.5641 23.3545 47.4098 23.2798 47.2237C22.8531 46.1531 21.9772 44.1542 21.2809 43.982C20.3376 43.7499 19.3943 45.4044 19.035 46.228C18.8328 46.6996 18.3313 47.9573 17.9345 48.968C17.7639 49.4023 17.4736 49.7792 17.0972 50.0549C16.7208 50.3306 16.2738 50.4937 15.8083 50.5252C14.9107 50.6336 14.0033 50.6336 13.1057 50.5252C12.2747 50.2931 8.02987 42.4548 7.91758 38.6666C7.80528 34.8785 10.4031 31.0978 13.1581 29.915C15.9131 28.7321 21.1462 27.654 26.2295 32.6251Z" fill="#7E3636"/>
<path d="M7.06445 65.5132C7.06445 66.5837 11.5563 82.6422 10.8077 85.4796C10.059 88.317 8.13501 108.164 8.13501 108.164" stroke="#6060E7" stroke-width="0.67" stroke-miterlimit="10"/>
<path d="M19.4191 27.4819C19.4191 27.4819 22.0244 27.5867 22.9228 26.2841C23.8212 24.9814 26.7259 24.682 28.8296 26.7857C30.9333 28.8894 30.8285 32.7748 29.0318 34.1898C29.0318 34.1898 31.128 33.793 31.4349 35.2903C31.7418 36.7876 29.1291 39.0934 26.0297 39.7822C26.0297 39.7822 21.0212 38.3822 19.5239 39.2806C18.0266 40.1789 7.91244 39.1832 7.91244 39.1832C7.91244 39.1832 5.71141 37.1769 6.31033 35.3801C6.90924 33.5834 7.51566 35.4774 7.51566 35.4774C7.51566 35.4774 7.01406 32.977 10.3156 29.3685C13.6171 25.76 18.2213 27.7739 19.4191 27.4819Z" fill="#7E3636"/>
<path d="M68.5605 81.1149L75.6652 81.4143C75.6652 81.4143 75.4631 82.1106 74.3626 82.3127C73.262 82.5148 69.1595 83.0164 69.1595 83.0164L68.5605 81.1149Z" fill="#EB7754"/>
<path d="M69.4567 82.6123C70.4158 82.4377 71.3869 82.3376 72.3614 82.3129C72.863 82.4102 73.3646 85.3075 73.3646 85.3075L71.463 87.3063C71.463 87.3063 70.7593 87.0069 71.463 85.9064L71.8598 85.2101L68.9551 84.1096L69.4567 82.6123Z" fill="#FF8D68"/>
<path d="M62.5547 84.3117L65.5493 83.915C65.5493 83.915 68.0498 81.4145 68.5439 81.115C69.038 80.8156 71.5385 84.716 71.8454 85.2176C71.8454 85.6144 70.3481 86.917 68.8508 87.1192C67.3535 87.3213 66.8519 86.917 66.8519 86.917L63.5504 88.2197L62.5547 84.3117Z" fill="#FF8D68"/>
<path d="M31.3283 60.8639C31.3283 60.8639 24.6279 60.7965 24.8225 69.0017C25.0172 77.2069 39.0468 90.6151 42.835 92.2098C46.6231 93.8044 62.8538 89.4098 64.2537 88.6088C65.6537 87.8077 65.2569 84.4088 63.0559 83.6078L46.4434 82.8067C46.4434 82.8067 36.0298 61.5302 31.3283 60.8639Z" fill="white"/>
<path d="M46.7051 84.147C47.2989 84.8121 47.7406 85.5988 47.9992 86.4522C48.2578 87.3056 48.3271 88.2051 48.2024 89.088" stroke="#A6D0F4" stroke-width="0.53" stroke-miterlimit="10"/>
<path d="M47.7461 83.7501C48.7307 84.0999 49.5938 84.7256 50.2324 85.5527C50.8709 86.3798 51.2579 87.3731 51.3471 88.4142" stroke="#A6D0F4" stroke-width="0.53" stroke-miterlimit="10"/>
<path d="M30.4985 44.3639H23.5586" stroke="#505E83" stroke-width="0.52" stroke-miterlimit="10"/>
<path d="M24.3731 45.1949C24.3731 45.1949 23.9014 43.1511 22.1721 44.0944C20.4427 45.0377 22.4865 49.9114 23.9014 49.597C25.3164 49.2825 24.695 45.981 24.3731 45.1949Z" fill="#FF7759"/>
<path d="M9.91211 35.5748C9.91211 35.5748 14.7184 34.4742 18.1472 38.0752" stroke="#663136" stroke-width="0.53" stroke-miterlimit="10"/>
<path d="M10.5469 34.8413C11.2903 34.1602 12.1988 33.6851 13.1824 33.4632C14.1659 33.2413 15.1903 33.2802 16.1542 33.576" stroke="#663136" stroke-width="0.53" stroke-miterlimit="10"/>
<path d="M10.084 36.5106C10.6047 36.607 11.097 36.8192 11.5246 37.1315C11.9522 37.4438 12.3042 37.8482 12.5545 38.3149" stroke="#663136" stroke-width="0.53" stroke-miterlimit="10"/>
<path d="M24.6289 26.9729C24.6289 26.9729 29.4277 28.4702 28.3272 32.8722" stroke="#663136" stroke-width="0.53" stroke-miterlimit="10"/>
<defs>
<linearGradient id="paint0_linear_837:541" x1="23.7542" y1="85.8314" x2="166.034" y2="85.8314" gradientUnits="userSpaceOnUse">
<stop stop-color="white" stop-opacity="0.2"/>
<stop offset="1" stop-color="white" stop-opacity="0.7"/>
</linearGradient>
</defs>
</svg>
