<svg width="417" height="441" viewBox="0 0 417 441" fill="none" xmlns="http://www.w3.org/2000/svg">
<path d="M62.5412 0.999883C62.5412 0.999883 109.5 66.924 236.435 58.0303C378.727 48.0591 434.847 124.252 396.587 174.67C358.327 225.089 228.618 218.843 218.534 315.994C208.228 415.325 43.4966 432.846 43.4966 432.846" stroke="#204CEC" stroke-width="3" stroke-miterlimit="10"/>
<path d="M19.7623 75.1532C19.7623 75.1532 125.851 105.481 233.792 97.6663C341.733 89.8515 351.444 135.439 337.764 153.25C309.373 190.184 169.76 194.477 156.92 254.829C147.293 300.188 197.313 362.494 73.104 392.345" stroke="#204CEC" stroke-width="3" stroke-miterlimit="10"/>
<path d="M65.9343 106.421C65.9343 106.421 176.843 98.6053 154.328 142.908C128.563 193.672 75.6245 191.778 121.6 257.682C138.015 281.09 137.416 374.194 40.4734 353.404" stroke="#204CEC" stroke-width="3" stroke-miterlimit="10"/>
</svg>
