<svg width="367" height="732" viewBox="0 0 367 732" fill="none" xmlns="http://www.w3.org/2000/svg">
<path d="M439.179 660.08C439.179 660.08 301.442 664.167 263.433 527.671C226.254 394.172 123.797 425.29 77.9388 361.718C32.0805 298.145 54.4206 182.376 171.85 171.659C276.606 162.096 272.998 98.4999 294.65 62.2058C316.302 25.9118 367.998 1.99991 367.998 1.99991" stroke="#FC6338" stroke-width="3" stroke-miterlimit="10"/>
<path d="M372 130.5C372 130.5 274.991 218.6 185.835 226.381C96.6797 234.162 102.509 299.303 118.841 321.732C152.727 368.239 266.303 350.08 294.688 431.876C316.003 493.355 294.414 588.737 403.247 608.82" stroke="#FC6338" stroke-width="3" stroke-miterlimit="10"/>
<path d="M367.998 199C367.998 199 231.918 217.845 263.283 275.626C299.195 341.839 341.207 330.051 323.948 429.743C317.749 465.166 346.088 594.671 417.839 548.971" stroke="#FC6338" stroke-width="3" stroke-miterlimit="10"/>
</svg>
