<svg width="575" height="602" viewBox="0 0 575 602" fill="none" xmlns="http://www.w3.org/2000/svg">
<path d="M33.9867 164.856C33.9867 164.856 129.49 105.873 211.9 186.685C292.502 265.72 352.107 202.037 410.351 228.207C468.595 254.376 499.988 345.146 421.511 400.536C351.505 449.949 379.953 493.344 379.46 527.767C378.968 562.19 352.238 600.115 352.238 600.115" stroke="url(#paint0_linear_1222:3)" stroke-width="3" stroke-miterlimit="10"/>
<path d="M297.076 511.093C297.076 511.093 329.629 409.43 389.356 367.628C449.083 325.825 418.438 282.245 397.782 273.075C354.934 254.067 282.207 313.137 228.866 266.994C188.789 232.304 165.17 156.223 80.2127 186.383" stroke="url(#paint1_linear_1222:3)" stroke-width="3" stroke-miterlimit="10"/>
<defs>
<linearGradient id="paint0_linear_1222:3" x1="90.2079" y1="110.18" x2="462.446" y2="492.935" gradientUnits="userSpaceOnUse">
<stop stop-color="#3434FF"/>
<stop offset="1" stop-color="#FF6534"/>
</linearGradient>
<linearGradient id="paint1_linear_1222:3" x1="115.684" y1="151.886" x2="383.387" y2="427.153" gradientUnits="userSpaceOnUse">
<stop stop-color="#3434FF"/>
<stop offset="1" stop-color="#FF6534"/>
</linearGradient>
</defs>
</svg>
